<svg viewBox="0 0 1109.06 776.51"><path d="M365.08 771.51c-41.91-.57-83.68-6.66-122.45-23.19-36.65-15.63-71.73-36.09-102.57-61.37-30.33-24.86-55.94-55.2-76.86-88.31-20.83-32.97-36.9-69.09-45.87-107.1-9.46-40.08-13.5-81.82-12.01-122.96 1.47-40.46 8.54-81.22 25.02-118.39 15.28-34.46 37.37-65.45 62.24-93.61 25.84-29.26 53.61-57.3 86.65-78.42 35.14-22.47 75.18-38.25 114.93-50.43 41.74-12.8 84.98-21.25 128.69-22.52 81.35-2.37 165.03 22.73 229.86 72.54 56.35 43.29 94.86 106.51 115.32 173.96 11.54 38.04 17.71 77.96 19.42 117.65 1.83 42.51-2.45 84.69-16.87 124.9-13.86 38.64-35.23 73.69-61.22 105.33-25.84 31.45-54.4 60.91-86.51 86.01-32.41 25.34-67.68 46.73-106.83 59.83-39.57 13.25-82.25 20.8-123.99 21.08-22.1.15-44.17-1.76-66.04-4.84-3.15-.44-4.51 4.37-1.33 4.82 22.82 3.22 45.82 5.26 68.89 5.01 21.7-.24 43.26-2.78 64.62-6.52 40.69-7.14 80.82-19.54 116.6-40.53 35.74-20.96 68.77-46.99 97.81-76.52 28.78-29.27 56.2-61.06 76.91-96.64 20.79-35.73 35.32-75.44 40.63-116.5 5.65-43.7 2.5-88.58-4.96-131.87-12.27-71.17-41.81-140.2-90.96-193.79C640.85 50.94 563.91 14.76 486.28 3.67c-86.8-12.39-176.77 7.74-256.3 42.53-19.59 8.57-38.73 18.04-56.61 29.8a314.618 314.618 0 0 0-45.85 36.72c-27.79 26.89-54.21 55.99-75.65 88.26C30.1 233.73 14.67 269.7 7.1 308.33c-8.14 41.51-8.84 84.37-4.33 126.35 4.31 40.14 13.16 79.44 29.44 116.48 15.98 36.36 37.9 70.06 63.91 100.03 26.6 30.64 58.78 55.79 93.78 76.18 35.74 20.82 73.9 37.22 114.86 44.1 19.93 3.35 40.12 4.77 60.32 5.05 3.22.03 3.22-4.97 0-5.01z"/><path d="M384.45 32.64c.56 27.51 2.9 54.94 3.77 82.44.86 27.48.02 54.97.68 82.46.66 27.4.2 54.87 2.22 82.22 1 13.59 2.63 27.11 4.17 40.64 1.54 13.46 2.81 26.94 3.99 40.43.58 6.56.67 13.13 1.11 19.69.43 6.41 2.2 12.59 3.75 18.79.77 3.06 1.49 6.14 1.92 9.26.14 1.05.17 2.12.32 3.16.11.76-.27.47.17.3.84-.33.15-.15-.24-.29-.33-.12-.61-.23-.91-.45-.61-.45-1.15-1.06-1.62-1.64-1.1-1.34-1.98-2.87-2.8-4.39-3.74-6.88-6.18-14.38-9.74-21.37-6-11.79-12.42-23.35-18.71-34.99-12.5-23.15-23.16-47.21-35.77-70.3-12.75-23.33-26.45-46.15-40.26-68.86-7.08-11.64-14.21-23.24-21.27-34.89-6.9-11.39-13.5-22.98-20.7-34.18-7.11-11.04-14.66-21.79-21.81-32.8-7.29-11.23-14.25-22.66-21.83-33.69-3.06-4.45-5.36-9.46-9.01-13.49-2.17-2.39-5.69 1.16-3.54 3.54 1.9 2.09 3.32 4.55 4.76 6.98 1.49 2.51 3.08 4.91 4.72 7.32 3.89 5.72 7.66 11.51 11.37 17.34 7.16 11.25 14.41 22.41 21.85 33.47 15.21 22.59 28.75 46.26 42.94 69.49 14.14 23.16 28.25 46.36 41.6 69.98 6.59 11.66 12.97 23.44 18.97 35.42 5.99 11.95 11.47 24.13 17.67 35.97 6.19 11.82 12.71 23.47 18.98 35.25 2.94 5.52 5.98 11.05 8.59 16.73 1.21 2.64 2.48 6.15 3.76 9.12 1.57 3.63 3.25 7.32 5.61 10.52 2.06 2.8 5.1 5.76 8.94 4.84 5.19-1.25 2.93-9.01 2.26-12.51-1.22-6.31-3.24-12.44-4.36-18.77-1.15-6.5-.83-13.24-1.33-19.82-.51-6.73-1.2-13.45-1.78-20.18-1.21-13.82-2.94-27.58-4.46-41.36-1.53-13.85-2.72-27.71-3.27-41.63-.56-13.9-.68-27.8-.85-41.71-.17-13.92-.59-27.84-.66-41.76-.07-14.06.06-28.12-.04-42.18-.19-27.93-2.23-55.76-3.47-83.66-.3-6.81-.54-13.62-.68-20.44-.08-3.21-5.08-3.22-5.01 0zM666.47 346.85c14.59-8.37 29.36-16.43 44.29-24.18 14.85-7.72 29.85-15.14 44.97-22.31 15.2-7.21 30.51-14.16 45.93-20.89 15.37-6.71 30.84-13.2 46.38-19.51 7.43-3.02 15-5.65 22.49-8.51 7.37-2.82 14.85-5.75 21.57-9.92 1.39-.86 2.71-1.53 4.34-1.76 1.34-.19 2.07-1.9 1.75-3.08-.4-1.44-1.73-1.93-3.08-1.75-3.56.49-6.38 2.98-9.49 4.56-3.56 1.81-7.2 3.44-10.9 4.94-7.53 3.06-15.21 5.7-22.79 8.62-15.66 6.01-31.09 12.69-46.49 19.34-15.44 6.67-30.79 13.56-46.02 20.69-15.3 7.17-30.47 14.59-45.5 22.31-14.96 7.68-29.78 15.65-44.41 23.95-1.86 1.05-3.71 2.11-5.56 3.17-2.8 1.62-.28 5.94 2.52 4.33zM948.11 219.9c9.13-3.28 18.54-8.18 28.47-7.84l-2.41-3.16c-1.21 3.23-3.24 6.08-4.48 9.3-1.36 3.5-.96 7.07.57 10.44 1.53 3.39 4.07 6.13 7.55 7.52 2.95 1.18 6.26 1.19 9.33.47 3.67-.86 7.07-2.84 9.78-5.45 2.32-2.24-1.22-5.77-3.54-3.54-3.51 3.39-8.78 5.45-13.29 4.05-2.29-.71-3.96-2.5-5.14-4.79-1.32-2.57-1.45-4.95-.39-7.52 1.25-3.02 3.24-5.98 4.43-9.16.59-1.59-.92-3.11-2.41-3.16-10.45-.36-20.21 4.57-29.8 8.02-1.27.46-2.12 1.7-1.75 3.08.34 1.22 1.8 2.2 3.08 1.74zM988.67 189.66v5.96c0 .64.28 1.31.73 1.77.43.43 1.15.76 1.77.73 1.35-.06 2.5-1.1 2.5-2.5v-5.96c0-.64-.28-1.31-.73-1.77-.43-.43-1.15-.76-1.77-.73-1.36.06-2.5 1.1-2.5 2.5zM1000.59 187.68v9.94c0 1.31 1.15 2.56 2.5 2.5 1.35-.06 2.5-1.1 2.5-2.5v-9.94c0-1.31-1.15-2.56-2.5-2.5-1.35.06-2.5 1.09-2.5 2.5zM1029.6 192.07c1.88-.54 3.74-1.15 5.64-1.59.48-.11.96-.21 1.45-.29.12-.02.89-.17.27-.05.24-.04.49-.06.73-.07.48-.04.96-.06 1.44-.05.24 0 .48.02.72.03.14.01.27.02.41.04-.33-.05-.35-.05-.06 0 1.29.21 2.75-.33 3.08-1.75.27-1.2-.37-2.85-1.75-3.08-4.59-.75-8.9.74-13.25 1.99-1.26.36-2.17 1.78-1.75 3.08.41 1.28 1.72 2.13 3.07 1.74z"/><path d="M1030.19 201.76c2.28-.98 4.59-1.93 6.72-3.22 2.42-1.46 4.48-3.31 6.1-5.63.75-1.08.23-2.82-.9-3.42-1.28-.68-2.62-.25-3.42.9-.09.13-.19.26-.28.4-.2.3.37-.45-.02.03-.18.22-.37.43-.56.64-.4.43-.82.84-1.27 1.23-.12.1-.23.2-.35.3-.05.04-.37.3-.11.09.29-.23-.13.09-.19.14-.12.09-.25.18-.37.27-.48.33-.97.64-1.47.94-2.04 1.19-4.24 2.1-6.41 3.03-1.21.52-1.57 2.38-.9 3.42.82 1.24 2.14 1.43 3.43.88z"/><path d="M1032.4 191.65c.4 6.73.02 14.22 4.71 19.66.88 1.02 2.63.9 3.54 0 1.01-1.01.88-2.51 0-3.54-.11-.12-.22-.25-.32-.38.24.3-.08-.13-.12-.18-.21-.3-.4-.62-.58-.94-.16-.29-.3-.59-.44-.89-.33-.71.07.21-.08-.21-.06-.16-.12-.31-.17-.47-.48-1.36-.85-3.14-1-4.33-.34-2.61-.36-5.86-.53-8.72-.08-1.35-1.09-2.5-2.5-2.5-1.31 0-2.59 1.15-2.51 2.5zM1033.57 221.89c5.1-1.24 9.95-1.85 15.24-1.9 1.31-.01 2.56-1.14 2.5-2.5-.06-1.34-1.1-2.51-2.5-2.5-5.58.05-11.15.76-16.57 2.08-1.27.31-2.15 1.82-1.75 3.08.43 1.31 1.72 2.07 3.08 1.74zM1086.35 173.54c2.17-2.34 4.67-3.39 7.86-3.05-.8-.61-1.61-1.22-2.41-1.84 1.14 4.98-2.22 9.7-4.95 13.53-.72 1.01-.26 2.91.9 3.42 3.7 1.63 7.82 2.93 10.87 5.69 2.23 2.02 3.93 4.81 4.86 7.93.45 1.51.69 2.7.54 4.29-.02.2-.23 1.09-.36 1.4-.23.51-.54.94-1.07 1.36-.35.28-1.24.75-1.9.83-.52.06-.61.01-1.06-.32.07.05-.05-.08-.16-.26-.14-.24-.16-.24-.23-.69-.05-.33.07-1.13.31-1.68.62-1.4 2.22-2.18 3.54-3.12 1.71-1.22 3.28-2.64 3.78-4.76.74-3.13-4.08-4.46-4.82-1.33-.16.69-.39.91-1.17 1.54-.53.43-1.51 1.03-2.21 1.53-1.93 1.39-3.49 3.01-4.14 5.36-1.38 4.99 2.57 9.79 7.81 8.47 4.57-1.14 7.03-5.56 6.69-10.05-.3-4-1.95-8.03-4.36-11.23-1.79-2.38-4.02-4.3-6.62-5.76-2.48-1.4-5.17-2.38-7.78-3.53l.9 3.42c3.63-5.1 6.93-10.91 5.45-17.39-.26-1.16-1.34-1.72-2.41-1.84-4.39-.47-8.42 1.31-11.4 4.51-2.18 2.39 1.35 5.94 3.54 3.57z"/></svg>
