<svg xmlns="http://www.w3.org/2000/svg" viewBox="0 0 198.43 38.19"><path fill="#6d737a" d="M5.55 16.05c-.52-.17-.93-.42-1.25-.72s-.53-.67-.66-1.08a4.6 4.6 0 0 1-.19-1.33V0H0v12.95c0 .93.12 1.85.4 2.74.26.83.69 1.54 1.28 2.15.5.49 1.09.87 1.79 1.19.16.07.31.17.48.23.93.34 2.04.51 3.35.51h7.88v-3.46H7.5c-.78 0-1.43-.09-1.95-.26M50.68 8h-4.75v3.02h4.39c.82 0 1.43.22 1.83.66s.6 1.06.6 1.86-.22 1.49-.65 2-1.13.78-2.11.78h-3.28c-1.94 0-3.33-.5-4.19-1.51s-1.29-2.64-1.29-4.91.43-3.93 1.3-4.94 2.26-1.51 4.18-1.51h8.14V0h-8.14c-2.89 0-5.11.81-6.64 2.45s-2.3 4.11-2.3 7.45.77 5.8 2.3 7.43c1.53 1.63 3.75 2.45 6.64 2.45h3.05c1.11 0 2.06-.16 2.83-.48s1.41-.76 1.9-1.32c.5-.57.87-1.24 1.08-1.96.25-.75.34-1.56.34-2.42 0-1.74-.43-3.08-1.29-4.08s-2.18-1.51-3.96-1.51m38.46 8.31c-.78 0-1.43-.09-1.95-.26s-.93-.42-1.25-.72-.53-.66-.66-1.08a4.6 4.6 0 0 1-.19-1.33V0h-3.46v12.95c0 .93.12 1.85.4 2.74.26.83.69 1.54 1.27 2.15s1.34 1.08 2.27 1.42c.93.34 2.05.51 3.35.51h7.88v-3.46h-7.67ZM21.33.4c-.83.26-1.51.64-2.05 1.11a4.34 4.34 0 0 0-1.19 1.71c-.13.34-.22.69-.29 1.05-.06.36-.09.73-.09 1.1v9.74c.04.42.13.83.26 1.24.02.06.02.12.05.17.24.67.64 1.24 1.17 1.71s1.25.85 2.05 1.13 1.83.41 3 .41h10.02v-3.45H24.24c-1.01 0-1.74-.22-2.26-.66s-.73-1.05-.73-1.83c0-1.6 1.01-2.4 3.01-2.4h9.99V8.3h-9.89c-2.01 0-3.02-.78-3.02-2.34 0-.76.23-1.37.7-1.82s1.23-.67 2.29-.67h9.93V0h-9.93c-1.17 0-2.15.13-3 .4"/><path fill="#485589" d="M105.48 0c-1.1 0-2.03.14-2.81.42s-1.42.68-1.92 1.19c-.5.51-.87 1.12-1.08 1.8-.23.73-.34 1.5-.34 2.27 0 .68.09 1.37.28 2.05.19.68.53 1.31.99 1.85.48.55 1.14.99 1.98 1.32s1.93.5 3.25.5h4.6c.61 0 1.11.07 1.51.2s.72.32.95.54.4.49.5.79.15.61.15.92c0 .75-.22 1.31-.66 1.77s-1.13.69-2.07.69H99.68v3.46h11.01c1.13 0 2.1-.15 2.89-.44.73-.26 1.4-.67 1.95-1.22.51-.52.89-1.14 1.11-1.83.23-.7.35-1.47.35-2.32 0-.7-.09-1.4-.28-2.11s-.52-1.33-1.02-1.87-1.18-.99-2.04-1.33-1.96-.51-3.31-.51h-4.63c-.59 0-1.06-.06-1.43-.19s-.67-.3-.9-.53c-.22-.21-.38-.47-.47-.76-.09-.28-.13-.57-.13-.86 0-.68.2-1.25.62-1.69s1.06-.66 1.96-.66h10.14V0h-10.02Zm22.98 0c-2.89 0-5.11.81-6.64 2.45s-2.3 4.12-2.3 7.46.76 5.79 2.3 7.42 3.75 2.45 6.64 2.45h7.65v-3.45h-7.65c-1.94 0-3.33-.5-4.19-1.51s-1.29-2.64-1.29-4.91.43-3.94 1.3-4.94 2.26-1.51 4.17-1.51h7.65V0h-7.65Zm34.33 0v3.46h10.28c.94 0 1.63.26 2.07.77.44.52.66 1.14.66 1.86 0 .34-.05.68-.16 1.01-.11.32-.27.61-.48.86-.23.27-.52.48-.85.62-.35.16-.77.23-1.26.23h-7.1c-1.1 0-1.89.25-2.37.73s-.73 1.29-.73 2.4v7.82h3.46v-7.15c0-.33.17-.5.5-.5h6.15c1.15 0 2.13-.18 2.94-.56.76-.33 1.43-.82 1.98-1.43.5-.58.88-1.26 1.1-1.99.25-.75.34-1.49.34-2.23 0-.77-.12-1.53-.37-2.25-.23-.71-.62-1.35-1.14-1.89-.52-.54-1.18-.97-1.98-1.29s-1.75-.48-2.87-.48H162.8Zm25.67 0c-1.17 0-2.17.13-3 .39s-1.51.64-2.05 1.12-.93 1.05-1.19 1.71c-.13.34-.25.69-.29 1.05-.06.36-.09.73-.09 1.1v9.74c.05.43.12.84.26 1.23l.05.17c.24.66.65 1.25 1.17 1.71.6.51 1.3.9 2.05 1.13.83.25 1.83.41 3 .41h10.03V16.3h-10.02c-1.02 0-1.77-.22-2.25-.66s-.73-1.05-.73-1.83c0-1.6 1-2.4 3.01-2.4h10V8.27h-9.91c-2.01 0-3.02-.78-3.02-2.34 0-.76.24-1.37.7-1.82s1.23-.67 2.29-.67h9.94V0h-9.96Z"/><path fill="#6d737a" d="M72.54 2.55C72.19 1.61 71.68.96 71 .57 70.33.19 69.47 0 68.43 0s-1.92.19-2.59.57c-.67.38-1.2 1.04-1.57 1.98l-6.8 17.23h3.81l1.59-4.03h10.86l1.52 4.03h3.83L72.54 2.55ZM64.1 12.61l3.31-8.39c.2-.45.52-.67 1-.67s.79.25.97.67l3.17 8.39h-8.44Z"/><path fill="#485589" d="m6.27 37.15-1.64-4.98h-.55l-1.64 4.98-1.7-4.98H0l2.13 6.02h.56l1.65-4.84 1.63 4.84h.58l2.13-6.02h-.71l-1.7 4.98zm5.15-1.66h3.25v-.62h-3.25v-2.09h3.63v-.61h-4.3v6.02h4.35v-.62h-3.68v-2.08zm11.26 0h3.26v-.62h-3.26v-2.09h3.64v-.61h-4.31v6.02h4.36v-.62h-3.69v-2.08zm38.39 0h3.26v-.62h-3.26v-2.09h3.64v-.61h-4.3v6.02h4.35v-.62h-3.69v-2.08zm-15.85-3.32c-1.78 0-2.98 1.41-2.98 3.02s1.19 3 2.96 3 2.98-1.41 2.98-3.02-1.19-3-2.96-3Zm0 5.41c-1.31 0-2.3-1.08-2.3-2.41s.95-2.4 2.28-2.4 2.3 1.08 2.3 2.41-.97 2.4-2.28 2.4Zm10.7-.43-1.64-4.98h-.55l-1.64 4.98-1.7-4.98h-.74l2.13 6.02h.56l1.64-4.84 1.64 4.84h.57l2.13-6.02h-.7l-1.7 4.98zM31.3 35.42l-2.17-3.25h-.68v6.02h.66v-4.88l2.17 3.19h.03l2.17-3.2v4.89h.68v-6.02h-.69l-2.17 3.25zm7.17-3.25h-2.23v6.02h.67v-2.16h1.45c1.27 0 2.34-.66 2.34-1.96 0-1.18-.88-1.9-2.23-1.9Zm-.09 3.24h-1.47v-2.62h1.51c.96 0 1.6.44 1.6 1.3 0 .79-.65 1.32-1.64 1.32Zm33.18-1.46c0-1.07-.84-1.78-2.15-1.78h-2.57v6.02h.67v-2.37h1.7l1.73 2.37h.83l-1.83-2.49c.94-.17 1.62-.75 1.62-1.74Zm-4.05 1.26v-2.42h1.84c.96 0 1.52.44 1.52 1.19s-.64 1.24-1.53 1.24h-1.83Zm17.88.28h3.25v-.62h-3.25v-2.09h3.64v-.61h-4.31v6.02h4.36v-.62h-3.69v-2.08zm8.58.06h1.77V37c-.48.38-1.07.58-1.68.58-1.41 0-2.3-1.03-2.3-2.43 0-1.31.92-2.4 2.19-2.4.66-.02 1.29.22 1.77.67l.42-.5c-.58-.49-1.19-.77-2.17-.77h.02c-1.75 0-2.92 1.41-2.92 3.02s1.13 3 2.96 3c.86 0 1.69-.32 2.34-.89v-2.32h-2.41v.59Zm12.61-3.38h-.66v6.02h4.03v-.62h-3.37v-5.4zm-5.82 0-2.71 6.02h.69l.71-1.6h3.25l.7 1.6h.75l-2.71-6.02h-.66Zm-1.05 3.82 1.36-3.04 1.35 3.04h-2.71Zm-20.36-3.82h-.66v6.02h4.02v-.62h-3.36v-5.4zm65.37 3.32h3.25v-.62h-3.25v-2.09h3.63v-.61h-4.3v6.02h4.35v-.62h-3.68v-2.08zm23.74-3.32c-1.78 0-2.98 1.41-2.98 3.02s1.19 3 2.96 3 2.98-1.41 2.98-3.02-1.19-3-2.96-3Zm-.01 5.41c-1.31 0-2.3-1.08-2.3-2.41s.95-2.4 2.28-2.4 2.3 1.08 2.3 2.41-.97 2.4-2.28 2.4Zm-35.59-5.41c-1.78 0-2.98 1.41-2.98 3.02s1.19 3 2.96 3 2.98-1.41 2.98-3.02-1.19-3-2.96-3Zm0 5.41c-1.31 0-2.3-1.08-2.3-2.41s.95-2.4 2.28-2.4 2.3 1.08 2.3 2.41-.97 2.4-2.28 2.4Zm-13.77-5.41h-2.23v6.02h.67v-2.16h1.45c1.27 0 2.34-.66 2.34-1.96 0-1.18-.88-1.9-2.23-1.9Zm-.09 3.24h-1.47v-2.62h1.51c.96 0 1.6.44 1.6 1.3 0 .79-.65 1.32-1.64 1.32Zm9.13-1.46c0-1.07-.84-1.78-2.15-1.78h-2.57v6.02h.67v-2.37h1.7l1.73 2.37h.83l-1.83-2.49c.94-.17 1.62-.75 1.62-1.74Zm-4.05 1.26v-2.42h1.84c.96 0 1.52.44 1.52 1.19s-.64 1.24-1.53 1.24h-1.83Zm58.99-3.04-2.71 6.02h.69l.71-1.6h3.25l.7 1.6h.75l-2.71-6.02h-.66Zm-1.06 3.82 1.36-3.04 1.35 3.04h-2.71Zm7.19-3.82h-.67v6.02h4.03v-.62h-3.36v-5.4zm7.33 2.68c-1.28-.28-1.58-.58-1.58-1.14s.48-.97 1.22-.97c.62 0 1.21.23 1.68.63l.38-.51a3.06 3.06 0 0 0-2.05-.72c-1.11 0-1.89.7-1.89 1.63s.62 1.4 1.96 1.69c1.22.26 1.52.57 1.52 1.11 0 .59-.52 1-1.3 1s-1.39-.28-2-.83l-.41.48c.64.61 1.5.94 2.38.93 1.16 0 1.99-.65 1.99-1.66 0-.9-.6-1.37-1.9-1.66Zm-58.86 3.34h.68v-2.66h3.23v-.61h-3.23v-2.13h3.61v-.62h-4.29v6.02zm25.21-6.02h.67v5.99h-.67zm14.72 4.84-3.75-4.84h-.63v6.02h.65v-4.95l3.85 4.95h.54v-6.02h-.66v4.84zm-18.71-2.16c-1.28-.28-1.58-.58-1.58-1.14s.48-.97 1.22-.97c.62 0 1.21.23 1.68.63l.38-.51a3.06 3.06 0 0 0-2.05-.72c-1.11 0-1.89.7-1.89 1.63s.62 1.4 1.96 1.69c1.22.26 1.52.57 1.52 1.11 0 .59-.52 1-1.3 1s-1.39-.28-2-.83l-.41.48c.64.61 1.5.94 2.38.93 1.16 0 1.99-.65 1.99-1.66 0-.9-.6-1.37-1.9-1.66Zm-5.92.03c-1.28-.28-1.58-.58-1.58-1.14s.48-.97 1.22-.97c.62 0 1.21.23 1.68.63l.38-.51a3.06 3.06 0 0 0-2.05-.72c-1.11 0-1.89.7-1.89 1.63s.62 1.4 1.96 1.69c1.22.26 1.52.57 1.52 1.11 0 .59-.52 1-1.3 1s-1.39-.28-2-.83l-.41.48c.64.61 1.5.94 2.38.93 1.16 0 1.99-.65 1.99-1.66 0-.9-.6-1.37-1.9-1.66Zm8.98-10.7-8.22-21.64c-.35-.94-.86-1.59-1.54-1.98-.67-.37-1.5-.56-2.54-.56s-1.92.19-2.59.57c-.67.38-1.2 1.04-1.57 1.98l-8.5 21.64H0c.12.25.52 1.37 1.82 2.19 2 1.25 4.13 1.27 4.8 1.27h132.83l9.19-23.42c.2-.45.52-.67 1-.67s.79.25.97.67l8.88 23.42h32.33c.67 0 2.8-.01 4.8-1.27 1.3-.82 1.7-1.94 1.82-2.19h-36.47Z"/></svg>