<svg xmlns="http://www.w3.org/2000/svg" xml:space="preserve" viewBox="0 0 136.1 44.2"><path d="M96.8 11.3c-.4-1.8-1.5-3.1-3.3-3.7-1.2-.4-2.4-.4-3.6-.2-2.3.4-3.7 1.8-4.4 4-.6 1.7-.6 3.4-.2 5.1.2 1 .5 1.9 1.2 2.7 1 1.2 2.3 1.7 3.8 1.9 1.2.2 2.5.1 3.7-.2.7-.1 1.3-.4 2-.6.2-.1.4-.2.5-.5.2-.6.1-1.2 0-1.8-.1-.3-.2-.4-.5-.3-.2 0-.4.1-.6.2-1.4.5-2.8.7-4.3.5-1.6-.2-2.7-1.6-2.4-3.2H96c.7 0 1.1-.4 1.1-1 0-1 0-1.9-.3-2.9zm-8.2 1.6c0-.8.2-1.6.7-2.2.7-.9 1.6-1.1 2.7-.8 1 .2 1.5 1 1.6 2 .1.3.1.7.1 1.1h-5.1zm-13.1-1.1c-.4-1.2-.7-2.3-1.1-3.5-.1-.3-.2-.6-.6-.6-.9-.1-1.7-.2-2.6 0-.4.1-.5.3-.5.7.1.3.1.6.2.9l3.6 10.8c.2.5.5.8.9.8h3.2c.5 0 .8-.3 1-.8 1.1-3.5 2.3-6.9 3.5-10.4.1-.4.2-.8.3-1.3.1-.5 0-.7-.5-.7h-2.2c-.4 0-.6.2-.8.6-.7 2.2-1.3 4.4-2 6.7-.2.8-.5 1.6-.7 2.4-.5-1.9-1.1-3.8-1.7-5.6zm44.3-2.3V8.3c0-.5-.1-.6-.6-.6h-1.8c-.5 0-.6.2-.6.7v11.7c0 .5.1.7.6.7h2.2c.6 0 .6-.2.6-.7v-7c0-.1 0-.3.1-.4.4-.7.9-1.3 1.5-1.8.4-.3.9-.4 1.4-.3.2.1.4.1.7.2.4.1.7 0 .7-.5V8c0-.3-.2-.4-.4-.5-1.1-.3-2.1-.3-2.9.4l-.9.9c-.2.3-.3.5-.6.7.1 0 0 0 0 0zM67.9 8.4c0-.5-.1-.6-.6-.7-.8-.2-1.6-.2-2.3 0-.5.1-.6.2-.6.7v11.7c0 .5.1.6.6.7.8.1 1.5.1 2.2 0 .5-.1.6-.2.6-.7V8.4h.1zm47.2 11.9c-.1-.3-.1-.7-.2-1-.8-2.4-1.7-4.8-2.5-7.2-1-2.8-1.9-5.5-2.9-8.3-.2-.4-.4-.7-.9-.7h-3.1c-.6 0-.9.3-1.2.9-1.8 5.1-3.6 10.2-5.3 15.3-.1.3-.2.5-.2.8-.1.5.1.7.5.7h2.4c.3 0 .5-.2.6-.5.1-.4.3-.9.4-1.3.2-.7.5-1.4.7-2.1h6.7c0 .1.1.2.1.3.3 1 .7 2 1 3 .1.4.4.7.8.7h2.7c.3-.1.4-.3.4-.6zM104.2 14c.8-2.5 1.6-4.9 2.5-7.4h.1c.8 2.5 1.6 4.9 2.5 7.4h-5.1zm-49.1 3.2V3.9c0-.5-.1-.6-.5-.7-.9-.2-1.8-.2-2.6 0-.4.1-.5.2-.5.6v15.9c.1.8.4 1.1 1.2 1.1h7.8c.5 0 .6-.1.7-.5.1-.6.1-1.3 0-1.9-.1-.4-.2-.5-.7-.5h-5.4v-.7zm78.1-6.7h2.1c.4 0 .5-.1.6-.4.1-.7.1-1.3 0-2-.1-.3-.2-.4-.5-.4h-2.6V5.2c0-.4-.1-.6-.5-.6-.8-.2-1.6-.1-2.5 0-.4.1-.5.2-.5.6v2.5h-1.2c-.4 0-.6.1-.7.6 0 .5-.1.9 0 1.4.1.8.2.8.9.8h1V17c0 .5.1 1 .2 1.4.3 1.3 1 2.1 2.3 2.5.8.2 1.6.2 2.3.1l1.2-.3c.3-.1.5-.3.6-.7.1-.6.1-1.2 0-1.8-.1-.4-.2-.5-.6-.3-.2.1-.5.2-.8.2-.9.2-1.5-.2-1.7-1.1-.1-.3-.1-.6-.1-.9v-5.7h.5v.1zM67.1 5.8c.5-.1.8-.4 1-.9.2-.6.2-1.1 0-1.7-.1-.4-.4-.7-.8-.8-.7-.2-1.5-.2-2.2 0-.4.1-.6.4-.8.8-.2.6-.2 1.2 0 1.8.1.4.4.7.8.8.3.1.7.1 1 .2.4-.1.7-.2 1-.2zm24.1 33.9c-.1-.1-.3-.1-.4-.1-1.6-.4-3.1-1.1-4.4-2.1-.2-.1-.3-.3-.5-.4V37h4.2c.3 0 .6 0 .9-.1.4-.1.6-.4.6-.8 0-.6-.2-.9-.8-1h-7.3v-1.5h1.6c.8 0 1.3-.4 1.3-1.3v-5.6c-.1-.7-.6-1.1-1.3-1.1h-1.7c.1-.3.1-.7.2-1 .1-.5-.2-.9-.7-1.1-.6-.2-1 0-1.2.5-.1.3-.2.6-.3 1-.1.2-.1.4-.2.6h-1.3c-.8 0-1.2.5-1.2 1.2v5.5c.1.7.5 1.1 1.2 1.2h1.6V35h-6.6c-.3 0-.6 0-.9.1-.4.1-.6.4-.6.8s.2.7.6.8c.4.3.7.3 1 .3h4.1c0 .1 0 .1-.1.1l-.3.3c-1.2 1-2.7 1.6-4.1 2.3-.3.1-.6.2-.9.4-.4.2-.6.7-.4 1.2.2.4.6.7 1 .6.3-.1.6-.1.8-.2 2.2-.8 4.2-2.1 5.9-3.7.1-.1.2-.2.4-.3V41c0 .3.1.5.3.7.3.3.7.3 1.1.2.4-.2.6-.5.6-.9v-3.5c.2.2.3.4.5.5 1.7 1.8 3.8 3 6.2 3.6.3.1.6.1.9.1.4-.1.7-.5.8-.9s-.1-.9-.6-1.1zM80.6 27.8c0-.2.1-.3.5-.3h3c.3 0 .4.1.4.4v.8h-3.9v-.9zm2.3 4h-1.8c-.4 0-.5-.1-.5-.5v-.8h3.9v1c0 .2-.1.3-.4.3h-1.2zm22.8 4.4c-.1-.5-.4-.8-1-.7h-.2l-2.1.3h-.3v-.1c.1-.1.2-.2.3-.2.4-.4.8-.7 1.1-1.1.4-.5.8-.9.9-1.5.2-.9-.2-1.5-1.1-1.5h-2.1c.3-.3.6-.6.9-1 .1-.2.3-.2.5-.2h1.8c.2 0 .4 0 .6-.1.3-.1.4-.2.5-.5.2-.6-.1-1.1-.7-1.2-.3-.1-.6-.1-.9-.1.1-.1.2-.2.2-.3l1.2-1.8c.2-.2.3-.5.4-.8.2-.6-.3-1.2-.9-1.2-.3 0-.6.2-.8.4-.2.3-.3.5-.5.8-.7-.4-1.5-.1-2.2-.3 0-.4-.1-.7-.1-1.1-.1-.5-.4-.7-.9-.7-.4 0-.7.2-.8.7 0 .2-.1.5-.1.7v.4h-1.6c-.3 0-.6.1-.9.2-.3.1-.5.3-.5.7 0 .5.2.9.8 1 .6.1 1.2 0 1.7.1h.4v1.2h-2.2c-.3 0-.5 0-.8.1-.5.1-.7.4-.7.9s.2.8.7.9c.2 0 .4.1.5.1h2.5v.1l-.2.2c-.8.8-1.8 1.4-2.8 2-.2.1-.3.2-.5.3-.4.3-.5.9-.2 1.3.2.4.6.5 1.1.3l.6-.3c.4-.3.9-.6 1.3-.9.1-.1.2-.2.3-.2h2.5c.2 0 .3.1.2.3-.2.3-.4.5-.7.7-.1-.1-.2-.3-.4-.3-.5-.4-1.1-.2-1.3.4-.1.3 0 .6.1.9.2.3.3.6.5.9-.4 0-.8 0-1.1.1-.9 0-1.8.1-2.7.1-.4 0-.7.4-.8.8 0 .4.2.8.6.9.2.1.4.1.6.1 1.1 0 2.1-.1 3.2-.1h.9c.1.4.1.8.1 1.2 0 .5-.2.8-.7.9-.4.1-.7.1-1.1.1-.3 0-.6 0-.9-.1-.2 0-.4.1-.6.3-.5.7-.2 1.5.6 1.6.8.2 1.6.2 2.4.1 1.2-.2 1.9-.8 2.1-1.9.1-.3.1-.7.1-1.1 0-.4-.1-.9-.1-1.4h.2c.7-.1 1.4-.2 2.2-.3.7-.2 1-.6.9-1.1zm-4.4-9.1h1.1c-.3.4-.6.8-1 1.2h-.1v-1.2zm-33.7 7.4c0-.8-.4-1.4-1.2-1.6-.3-.1-.6-.1-1-.1H54.7c-1.1.1-1.6 1-1.6 1.7v5.7c0 .7.4 1.4 1.3 1.6.3.1.6.1.9.1h10.8c1-.1 1.7-.7 1.7-1.8l-.2-5.6zm-2 5c0 .3-.2.4-.5.5H56c-.8 0-.9-.1-.9-.9v-.8h10.5c-.1.4 0 .8 0 1.2zm0-3.1H55.1v-1.2c0-.2.2-.4.4-.4h9.1c.8 0 .9.1.9.9l.1.7z"/><path d="M112.9 39.7c-.9-.6-1.6-1.4-2.2-2.2-.2-.2-.2-.3-.1-.6.3-.7.7-1.3.9-2 .7-1.7 1-3.5 1.1-5.2l.1-1.4c.2-.1.5-.1.7-.2.4-.1.6-.5.6-.9 0-.5-.2-.8-.7-.9-.2-.1-.4-.1-.6-.1h-4.2c0-.4.1-.8.1-1.2 0-.3 0-.6-.1-.9-.1-.4-.4-.6-.8-.6s-.7.2-.8.5c-.1.2-.1.3-.2.5-.1.6-.1 1.1-.2 1.7-.3 1.9-.8 3.8-1.8 5.5 0 .1-.1.2-.1.2-.3.8.2 1.5 1.1 1.4.2 0 .4-.2.6-.3 0 0 0 .1.1.2.4 1.4.9 2.7 1.6 4 .1.2 0 .3-.1.5-.7.8-1.4 1.5-2.3 2-.3.2-.7.4-1.1.7-.4.3-.5.8-.3 1.2.2.4.6.6 1.1.5.4-.1.8-.3 1.1-.5 1-.6 1.8-1.3 2.6-2.2.1-.1.1-.2.2-.3.2.3.4.5.6.7.6.7 1.2 1.4 2 1.9.3.2.6.4.9.5.4.2.9-.1 1.1-.5.2-.5.2-.9-.1-1.2-.3-.4-.6-.6-.8-.8zm-3.6-4.4c-.4-.9-.8-1.8-1-2.7l-.6-2.7v-.2c.1-.5.3-1 .4-1.4h2.8c-.1 2.4-.6 4.7-1.6 7zm-40.4-5.6c-.3-.1-.5-.1-.8-.1h-3.5c.2-1 .4-1.9.7-2.8h1.9c.3 0 .6 0 .8-.1.4-.1.6-.4.6-.9s-.2-.8-.6-.9c-.3-.1-.6-.1-.9-.1h-5.9c0-.2 0-.4-.1-.5-.1-.6-.3-.9-.9-.9-.7 0-1 .2-1.1.8 0 .2 0 .4-.1.6h-5.7c-.3 0-.5 0-.8.1-.5.1-.7.4-.7.9s.2.8.8.9c.2 0 .4.1.7.1h1.9c.2.9.5 1.8.7 2.8h-3.3c-.3 0-.5 0-.8.1-.3 0-.5.3-.6.5-.2.6.1 1.2.8 1.2h16c.3 0 .6 0 .9-.1.4-.1.6-.4.6-.9.1-.3-.1-.6-.6-.7zm-6.4-.1H58c-.2-.9-.5-1.8-.7-2.8h5.9c-.2.9-.5 1.9-.7 2.8zm62.9 10.6h-6.7c-.6.1-.8.3-.8.9 0 .6.3.9.8.9h16.7c.5-.1.8-.4.8-.9s-.3-.8-.8-.9h-7.3v-1.6h5.1c.3 0 .5 0 .8-.1.5-.1.7-.4.7-.9s-.2-.7-.7-.8c-.3 0-.6-.1-.8-.1H128v-.6c0-.5-.3-.8-.7-1-.7-.2-1.3.2-1.4 1v.5H121c-.3 0-.6 0-.9.1-.4.1-.6.4-.6.8s.2.7.6.8c.3.1.6.1.9.1h5V40l-.6.2z"/><path d="M134.5 34.2c-.1-.2-.2-.4-.3-.5-.9-1-1.7-2-2.6-3-.1-.1-.1-.1-.1-.2.4 0 .8-.1 1.2-.1.4-.1.6-.4.6-.8s-.2-.7-.6-.8c-.3-.1-.6-.1-.9-.1h-9.6c-.3 0-.6 0-.8.1-.5.1-.7.4-.7.8s.2.7.7.8c.2 0 .5.1.7.1h.9c-.4.7-.8 1.3-1.1 2-.1.2-.3.3-.5.3h-1.8c-.2 0-.4 0-.6.1-.4.2-.7.6-.6 1.1.1.5.4.8.8.9.3 0 .5.1.8.1 3 0 6.1-.1 9.1-.2.9 0 1.7-.1 2.5-.2.3 0 .5 0 .6.3.2.2.4.5.6.7.4.3 1 .3 1.3.1.5-.5.6-1 .4-1.5zm-10.4-1.4c0-.1.1-.2.1-.2.4-.6.7-1.2 1.1-1.8.1-.2.2-.2.4-.2h4.4c-.7.8-.1 1.4.4 2-2.2.1-4.3.2-6.4.2z"/><path d="M125.4 25h-5.8c-.9.1-1.5.7-1.5 1.6v2.1c0 .2 0 .4.1.6.1.5.4.7.9.7.7 0 1.1-.3 1.1-1v-1.4c0-.8 0-.8.8-.8h11.9c.8 0 .8 0 .9.9V29c0 .3.1.7.5.8.7.3 1.3 0 1.4-.7v-2.7c0-.7-.4-1.2-1.1-1.4-.3-.1-.6-.1-.9-.1h-5.5c0-.3-.1-.6-.1-.8-.1-.3-.2-.6-.6-.7-.7-.1-1.4 0-1.5 1 0 .2-.1.4-.1.6h-.5zm-50.8 8.6c.1 0 .2-.1.3-.1 1-.5 2-1 2.9-1.8.2-.2.4-.4.5-.6.4-.6 0-1.3-.7-1.3-.2 0-.5.1-.7.2-1 .6-1.9 1.2-2.8 1.7-.1.1-.2.1-.3.2-.2.2-.4.4-.3.6-.2.9.4 1.3 1.1 1.1zM90 24.5c-.9.8-1.7 1.6-2.7 2.3-.4.3-.4.9-.1 1.3.3.3.8.4 1.2.2 1-.6 2-1.4 2.7-2.3.1-.1.2-.3.3-.4.4-.7-.3-1.3-.9-1.4-.1.1-.4.1-.5.3zm-2.9 5.8c-.1.3 0 .7.2.9.6.6 1.1 1.2 1.7 1.7.3.3.7.5 1.1.8.4.3 1 .1 1.2-.2.3-.4.3-.9-.2-1.3-.8-.7-1.7-1.4-2.4-2.3-.2-.2-.4-.3-.6-.3-.5 0-.9.3-1 .7zm-13.2-5.4c-.2.4-.1.7.3 1 .3.3.7.5 1 .8.6.5 1.1.9 1.6 1.4.2.2.4.3.7.2.6-.1 1.1-.9.6-1.6-.8-.9-1.7-1.7-2.7-2.3-.2-.1-.4-.1-.5-.2-.5.1-.8.3-1 .7z"/><path fill="#d14d41" d="m12.5 22.1 7.2 7.2-7.3 7.3-.3-.3L1.6 25.8c-2.2-2.2-2.2-5.3 0-7.5C6.1 13.9 10.6 9.5 15 5l3.4-3.4c2.2-2.1 5.3-2.2 7.5 0L29.3 5l.2.2c-5.7 5.6-11.4 11.2-17 16.9z"/><path fill="#efc468" d="m15.1 39.3 3.6 3.6c1.7 1.6 4.5 1.8 6.4.4.5-.4 1-.9 1.5-1.4 3.7-3.7 7.4-7.4 11.1-11 1.7-1.7 3.5-3.4 5.2-5.2 1.2-1.2 1.7-2.8 1.4-4.5-.2-1.1-.7-2-1.5-2.8-3.5-3.5-7-7-10.6-10.5l-.2-.2-7.3 7.3 7.2 7.2C26.2 27.8 20.6 33.5 15 39.1c0 .1.1.2.1.2z"/></svg>