<svg xmlns="http://www.w3.org/2000/svg" viewBox="0 0 300 300"><g transform="translate(-231.54 -375.82)"><ellipse cx="381.54" cy="525.82" rx="143.458" ry="143.45" fill="#FE7829"/><path fill="#fff" d="M301.016 462.303c-3.934 0-7.157 3.212-7.157 7.142v112.734a7.18 7.18 0 0 0 7.153 7.16h161.052a7.18 7.18 0 0 0 7.153-7.16V469.445c0-3.93-3.223-7.142-7.153-7.142H301.012zm19.06 17.124h122.878l-61.431 53.675-61.447-53.675zm134.835 8.547v79.296l-44.926-40.045 44.926-39.251zm-146.746.046 45.113 39.419-45.113 40.22v-79.64zm90.967 48.684 42.741 38.109H321.646l42.49-37.884 12.667 11.067a7.18 7.18 0 0 0 9.413 0l12.92-11.292z"/></g></svg>