<svg xmlns="http://www.w3.org/2000/svg" viewBox="0 0 2800.23 1575.13"><defs><style>.cls-1{fill:#fff;}.cls-1,.cls-2,.cls-3,.cls-5{stroke:#666;}.cls-1,.cls-2,.cls-3,.cls-4,.cls-5{stroke-miterlimit:10;stroke-width:2px;}.cls-3{fill:#ef8035;}.cls-4{stroke:#000;}.cls-5{fill:#1d2a21;}</style></defs><g id="Layer_3" data-name="Layer 3"><polygon class="cls-1" points="247.62 1268.49 796.99 1338.6 1416.53 1003.65 1076.02 1021.74 247.62 1268.49"/><polygon class="cls-2" points="1188.12 1069.57 1239.12 1071.57 1292.12 1050.57 1245.12 1048.57 1188.12 1069.57"/><polygon class="cls-2" points="1042.12 1167.57 1102.12 1135.57 1049.12 1133.57 969.12 1171.57 1042.12 1167.57"/></g><g id="Layer_2" data-name="Layer 2"><path class="cls-1" d="M1248.71,1044.22c1,1.38,4.9-1.31,11.64-1.22a19,19,0,0,1,9.71,2.42c3.27,2,6.26,5.39,5.58,6.55-.55.93-3.29,1.28-10.19-.48a29.29,29.29,0,0,0-9-1.21c-1.22-.08-5.34.73-11.89,2.19-.79.17-3.06,2.94-3.39,5.34-.12.89.93,1.35,1.46,2.42,1,2,3.72,2.36,7.52,2.91,11.09,1.6,8.84,1,9.94,1.45,8.49,3.15,15.94,8.15,26,11.63,10.85,3.77,20.28-.21,26-.74,39-3.65,97.51,26.4,140.44,36.08,28.58,6.45,53.35-35.76,49.21-52.65-1.78-7.29-8.21-13-12.13-13.33-25.22-2.18-44.8,4-96.28,5.86,0,0-30.56-1.45-65.25-2.89-8.68-.36-16.58-6.06-26.92-11.87-11.32-6.35-11.83-9.26-19.65-12.12-3-1.1-18.92-2.66-35.66,2.44-6.06,7.76-10.94,14.37-16.23,32-.37,1.24-.93,3.33,0,4.13,1.08.92,3.82-.25,5.58-1.7a11.17,11.17,0,0,0,3.39-5.34"/><path class="cls-3" d="M1301.88,1165.71,1436,1086.83l50.91-51.2,30.56-30.4,54.54-50.4s37.09-37.12,144.54-17.52c-9.21,16.26,5.59,18.92,5.59,18.92a24.66,24.66,0,0,1,6.55,19.15c-1,12.13-43.36,136.57-43.36,136.57l-59.38,81-103.78,68.92-45.09,52.65-19.63,49.73-27.16,1.47L1366,1321.88l-66.49-101.11Z"/><path class="cls-1" d="M1583.87,973.26l125.86-33.52L1758,845.62l-4.65-88.77-59-44.6-120.3,3-41.69,55.56-11.82,47.34s4.68,10.12,3.84,13.54c-2.32,9.44-25.21,26.68-20.6,33s13.82,10.66,13.82,10.66-8.45,4.24-9,7c-.77,4.17,8.74,14.55,8.74,14.55L1513,902l.73,5.33,4.85,5.33s6.84,21,12.14,25.71c4.49,4,22.8,7.75,22.8,7.75l9-2.91h12.37l8.73,2.18,5.35,15.76Z"/><path class="cls-4" d="M1611.71,691.62s-17.8,10.19-30.59,18c-14.66,8.87-64.92,73.63-70,90-4.58,14.73,3.08,18.31,3.08,18.31s1.83,8.14,4.12,9.16c4.55,2,19-6.12,19-6.12l13.54,3.92,3.65,14.31-4.37,9.22,8.25,12.37,1.47,18.91s20.62,10.12,26.46,6.61c4.72-2.84,2.75-16.51,5.34-21.37,2.92-5.5,11.42-15.18,16.69-18.48,2.94-1.85,9.88-4.14,13.34-3.89,2.89.21,8.24,3,10.54,4.81,2.62,2,7.89,6.95,8.38,10.22.8,5.24-5.11,15.2-8,19.65-1.1,1.69-5.77,3.81-5.58,5.82.34,3.47,9.77,4.92,11.4,8,1.82,3.43.25,15.52.25,15.52l81.27,37.8s48.52-69.6,49.92-96.79c2.41-46.81,8.69-96.77-37.16-136C1684.85,670.54,1611.71,691.62,1611.71,691.62Z"/><path class="cls-3" d="M1734.12,924.57s34.32-49.83,35.72-77c2.41-46.81,8.69-96.77-37.16-136-47.83-41-121-19.88-121-19.88s-18.8,7.19-31.59,15c-14.66,8.87-35.2,28.94-45,43-7.93,11.37-16,17-24,50,53,0,93.35,10.48,119,27C1660.15,845.9,1734.12,924.57,1734.12,924.57Z"/><path class="cls-1" d="M1135.24,1139.58l-14.31-4.6s-34.45-31.27-45.85-35.15c-6.5-2.21-24.49,7.29-24.49,7.29l9,1.21s-12-2-16-1.94c-3.8.08-11.55.9-15,2.44-2.26,1-6.87,5.43-6.06,7.76.45,1.31,5.38,1.34,5.38,1.34s17.17-.87,21.78,1.32-21.54-3.12-27.8-.11c-3.22,1.55-8.09,11.76-8.09,11.76s-4.22,10.32-2.18,12.86c.8,1,3.4-1.22,3.4-1.22l7.27-4.37a5,5,0,0,1,2.67-2.42c3.32-1.33,14.31.48,14.31.48s-19.39,2.37-24.25,6.31c-2.34,1.9-4.2,8.41-3.88,11.4a7.19,7.19,0,0,0,2.19,3.64,5.42,5.42,0,0,0,3.13.78c2.23-.44,5.15-4.64,7.29-5.39,3.34-1.17,10.79.14,14.07,1.45,15.82,6.27,38.09,29.09,62.1,27.86,10.27-1.71,23.53.72,23.53.72s137.54,47.72,225.09,43.81c20.86-1,23.94-3,29.83-3.89,68.63-10.7,166.12-50.28,179.21-61.44s-92.19-72.48-92.19-72.48l-15.28,7.52s-103.56,46.44-142.84,47.84C1264.23,1145.9,1135.24,1139.58,1135.24,1139.58Z"/><path class="cls-3" d="M1445.31,1093.89s82.22,54.65,103,89.37c6.5,1.26,55-40.23,55-40.23l58.1-54.62,4.69-11.13s-36-82.94-74.28-80.26-50.8,6.15-64.23,15.8C1504.16,1029.67,1445.31,1093.89,1445.31,1093.89Z"/><path class="cls-5" d="M1035,1508.28s15.92-55.54,20.58-74.23,10.45-57,16.71-75.19c4.73-13.77,25.44-52.4,25.44-52.4s52.15,22.29,112.55,24S1411.84,1390,1411.84,1390l45.58-25.73-124.71-128S1202,1208.14,1157.59,1207c-36.54-.94-101.86,11.68-145.28,16.31-13.09,7-38.3,33.73-41.4,77.16C970.64,1316,960,1482.36,960,1482.36"/><path d="M1789.28,947.23l-25,17.47s-28.77,4.42-35.65,10.68c-44.56,40.6-68.85,170.23-109.29,214.94-20,22.16-77.25,45.93-100.63,64.55-14.38,11.45-38.21,40.15-47.92,55.76-7.69,12.35-13.75,42.18-22.86,53.52-7,8.66-28.84,17.42-36.12,25.86-37.72-23.44-123.79-51.19-167.13-61.29C1197.27,1317.65,1095.39,1288,1051,1308c-6.78,3-16.92,16.18-18.23,23.5-1.35,7.56-.39,24.67,4.8,30.33,5.5,6,23.62,6.26,31.6,7.89,41.16,8.43,125.26,16.06,165.9,26.7,35.82,9.37,138.27,53.06,138.27,53.06s65.36,27.71,86.12,39c13.68,7.44,37.38,29.57,52.4,33.69,13.65,3.74,45.5,5.47,56.51-3.42,13.81-11.15,19.13-68.4,19.13-68.4s1.68-44.47,7.25-58c9.16-22.21,41.86-59,58.77-76,52.13-52.62,148-116.63,166.66-244.94S1789.28,947.23,1789.28,947.23Z"/><path d="M1365.07,1490.68c-5.59-18.92-13.89-167.34-13.89-167.34l47.42-8.27,16.6-8.74,11.63-30.08-6.32-12.19-143.84-63.42L1177,1187.1l-19.39,19.9-4.23,16.91s77,75.47,153.19,96.53c-1.7,6.8-4.06,160.81-4.06,160.81"/></g></svg>