<svg xmlns="http://www.w3.org/2000/svg" xml:space="preserve" viewBox="0 0 430.2 434.8"><path fill="#FFF" stroke="#1A1A1A" stroke-linecap="round" stroke-linejoin="round" stroke-miterlimit="10" stroke-width="12" d="M40.7 220.2c-18.5-3.6-30 8.6-33.6 28.6-5.8 31.5 13.2 45.4 31.7 58.4l22 7.7 30.6-85.4-50.7-9.3zm318.1 8.4c10.2-5.8 21.6-11.3 31.8-3.2 19 15 21.2 37 19.6 59.2-1.1 14.9-37.8 41.5-50.3 37.5l-17.3-47.7 16.2-45.8z"/><path fill="#FFF" stroke="#1A1A1A" stroke-linecap="round" stroke-linejoin="round" stroke-miterlimit="10" stroke-width="12" d="M49.8 217.6c-8.8 27.7-1.8 56-2.7 84-1.9 59.3 33.1 106.2 90.8 119.1 54.3 12.1 109.2 11.9 161.8-9.3 33.1-13.4 46-45.5 60.8-74.4 11.9-23.2 8-48.9 5.9-73.8l9.5-87.7-317.5-35.1-8.6 77.2z"/><path fill="none" stroke="#1A1A1A" stroke-linecap="round" stroke-linejoin="round" stroke-miterlimit="10" stroke-width="12" d="M169.3 337.7c6.4 26.4 38.1 27.9 54 9"/><path fill="#1A1A1A" d="M286.7 285c-1.4 5.2-3.5 11.7-10.9 11.6-8.1-.1-14.5-3.9-14.7-13.5-.3-9.9 7-12.7 14.3-13.1 8.8-.5 10.9 6.6 11.3 15z"/><path fill="#FFF" stroke="#1A1A1A" stroke-linecap="round" stroke-linejoin="round" stroke-miterlimit="10" stroke-width="10" d="M111 252.7s30.6 7.3 38.3 18.8c-20.1 4.6-37.9 19.5-37.9 19.5" class="eye2"/><path fill="#1A1A1A" d="M381.8 218.6s-1.6 54.7-27.4 72.7c-8.9-22.5-17.4-34.8-25.7-43-5.8 13.9-3.3 32.9-12.3 33.7-13.2-38.9-52.5-86.9-52.5-86.9"/><g fill="#FE7829" stroke="#1A1A1A" stroke-linecap="round" stroke-linejoin="round" stroke-miterlimit="10" stroke-width="12"><path d="M37.5 140.1c29.1-37.7 40.8-87.7 82.8-116 33.2-22.4 71-18.9 107-15.6 49.2 4.4 97.4 16 140.6 42.2 18.7 11.3 36.2 25.1 41.4 47 4.5 19 10.1 62 10.5 81.5"/><path d="M414.3 258.1c3.5 4.4 7.7-2.7 8.2-8.5 1.8-23.1 4.9-48.4-8.2-67.5-.6-.9-2-2.1-2.9-3.1-26-26.8-41.1-28-65.6-34.4-32.6-8.5-65.1-18-98.1-24.7-52.1-10.7-104.5-16.9-158-9-12.8 1.9-22.9 5.6-35.4 10.2-6 2.2-18.4 12.8-18.4 12.8-13.5 17.4-2.4 47.8-3.1 68.8-.2 7.7 2.7 18.5 15.4 18l19-39c3.3-1.5 6.6-4.2 10-4.3 56.8-2.8 113 4.4 168.9 12.7 17.2 2.5 30.6 6.3 51.1 12.1 64.6 18.2 88.1 20.1 117.1 55.9z"/></g></svg>