<svg xmlns="http://www.w3.org/2000/svg" viewBox="0 0 3170 2490"><defs><style>.cls-1{fill:#3864dd;}.cls-2{fill:#598147;}.cls-3{fill:#76a038;}.cls-4,.cls-6{fill:#fff;}.cls-4,.cls-5,.cls-9{stroke:#999;stroke-width:8px;}.cls-4,.cls-5,.cls-7,.cls-9{stroke-miterlimit:10;}.cls-5{fill:#999;}.cls-7{fill:none;stroke:#000;stroke-width:12px;}.cls-8{fill:#340074;}.cls-9{fill:#333;}.cls-10{fill:#58575e;}</style></defs><g id="Wallpaper"><rect class="cls-1" x="-67" y="-47" width="3314" height="2608"/><path class="cls-2" d="M-139.67,1258S513,1072,737.5,1062.5c648.52-27.53,2573,348,2573,348V2500H-139.67Z"/><polygon class="cls-3" points="-196 1956 1237 1840 2204 1867 3400 1804 3400 2587.67 -216.75 2587.67 -196 1956"/></g><g id="Layer_2" data-name="Layer 2"><rect class="cls-4" x="255" y="200" width="1718" height="1378" rx="37.57"/><path class="cls-5" d="M292.57,200H1935.43A37.57,37.57,0,0,1,1973,237.57V278a0,0,0,0,1,0,0H255a0,0,0,0,1,0,0V237.57A37.57,37.57,0,0,1,292.57,200Z"/><circle class="cls-6" cx="301" cy="239" r="17"/><circle class="cls-6" cx="358.5" cy="239" r="17"/><circle class="cls-6" cx="416" cy="239" r="17"/><line class="cls-7" x1="492" y1="1358" x2="1736" y2="1358"/><line class="cls-7" x1="492" y1="511" x2="492" y2="1358"/><rect class="cls-8" x="520" y="934" width="185" height="401"/><rect class="cls-8" x="720.2" y="791" width="185" height="544"/><rect class="cls-8" x="920.4" y="727" width="185" height="608"/><rect class="cls-8" x="1120.6" y="980" width="185" height="355"/><rect class="cls-8" x="1320.8" y="1046" width="185" height="289"/><rect class="cls-8" x="1521" y="1074" width="185" height="261"/><rect class="cls-9" x="1262.23" y="862.36" width="1718" height="1378" rx="37.57"/><path class="cls-5" d="M1299.8,862.36H2942.66a37.57,37.57,0,0,1,37.57,37.57v40.43a0,0,0,0,1,0,0h-1718a0,0,0,0,1,0,0V899.93A37.57,37.57,0,0,1,1299.8,862.36Z"/><circle class="cls-6" cx="1308.23" cy="901.36" r="17"/><circle class="cls-6" cx="1365.73" cy="901.36" r="17"/><circle class="cls-6" cx="1423.23" cy="901.36" r="17"/><rect class="cls-10" x="1349" y="1016" width="402" height="45"/><rect class="cls-10" x="1867" y="1328" width="402" height="45"/><rect class="cls-10" x="1349" y="1172" width="133" height="45"/><rect class="cls-10" x="1519" y="1172" width="314" height="45"/><rect class="cls-10" x="1349" y="1562" width="314" height="45"/><rect class="cls-10" x="1349" y="1328" width="314" height="45"/><rect class="cls-10" x="1871" y="1172" width="314" height="45"/><rect class="cls-10" x="2221" y="1172" width="615" height="45"/><rect class="cls-10" x="1350" y="1640" width="314" height="45"/><rect class="cls-10" x="1702" y="1640" width="314" height="45"/><rect class="cls-10" x="2052" y="1640" width="615" height="45"/><rect class="cls-10" x="1350" y="1406" width="242" height="45"/><rect class="cls-10" x="1635" y="1406" width="680" height="45"/><rect class="cls-10" x="1349" y="1094" width="679" height="45"/><rect class="cls-10" x="2067.5" y="1094" width="375" height="45"/><rect class="cls-10" x="1349" y="1250" width="571" height="45"/><rect class="cls-10" x="1956" y="1250" width="645" height="45"/><rect class="cls-10" x="2482" y="1094" width="375" height="45"/><rect class="cls-10" x="1933" y="1016" width="402" height="45"/><rect class="cls-10" x="1784.5" y="1016" width="115" height="45"/><rect class="cls-10" x="1704" y="1328" width="115" height="45"/><rect class="cls-10" x="1512" y="1718" width="402" height="45"/><rect class="cls-10" x="1349" y="1718" width="115" height="45"/><rect class="cls-10" x="1512" y="1796" width="367" height="45"/><rect class="cls-10" x="1349" y="1796" width="115" height="45"/><rect class="cls-10" x="1512" y="1874" width="428" height="45"/><rect class="cls-10" x="1349" y="1874" width="115" height="45"/><rect class="cls-10" x="1512" y="1952" width="473" height="45"/><rect class="cls-10" x="1349" y="1952" width="115" height="45"/><rect class="cls-10" x="1349" y="1484" width="115" height="45"/></g></svg>