<svg xmlns="http://www.w3.org/2000/svg" fill="none" viewBox="0 0 72 24"><g clip-path="url('#logo-colored_svg__a')"><path fill="#00C1D4" d="M7.526 7.146a.254.254 0 0 1-.075.148.264.264 0 0 1-.15.073C3.203 7.8 0 11.31 0 15.46c0 1.1.228 2.188.669 3.199a8.15 8.15 0 0 0 1.897 2.685c1.26 1.15 2.942 1.887 5.141 2.253 2.52.42 5.085.426 7.634.39 1.564-.02 3.13-.07 4.695-.148a.133.133 0 0 0 .089-.04.128.128 0 0 0 .036-.09v-1.717a.122.122 0 0 0-.04-.093.129.129 0 0 0-.097-.034 112.39 112.39 0 0 1-5.032.14c-2.314.015-4.654.017-6.944-.365-1.796-.3-3.137-.87-4.105-1.748a6.126 6.126 0 0 1-1.475-2.149 6.015 6.015 0 0 1 .242-5.055 6.16 6.16 0 0 1 1.672-2.005C5.684 9.664 7.12 9.145 8.723 9.19a.662.662 0 0 0 .476-.185.635.635 0 0 0 .191-.465c-.044-1.575.486-2.975 1.526-4.25a6.237 6.237 0 0 1 2.048-1.637 6.383 6.383 0 0 1 5.164-.236 6.272 6.272 0 0 1 2.195 1.443 6.27 6.27 0 0 1 1.333 2.254.257.257 0 0 0 .245.167h1.754a.134.134 0 0 0 .107-.052.126.126 0 0 0 .02-.115c-.424-1.475-1.073-2.669-1.974-3.615A8.34 8.34 0 0 0 19.06.648 8.487 8.487 0 0 0 15.792 0c-4.238 0-7.825 3.136-8.266 7.146Z"/><path fill="#63666A" d="M53.856 19.774h-1.979a.135.135 0 0 1-.094-.038.13.13 0 0 1-.04-.093V8.204a.13.13 0 0 1 .04-.092.135.135 0 0 1 .094-.038h1.979a.134.134 0 0 1 .094.038.13.13 0 0 1 .038.092v11.444a.126.126 0 0 1-.038.093.134.134 0 0 1-.094.038m.576-14.813c0 .298-.09.59-.26.837a1.524 1.524 0 0 1-.69.555 1.57 1.57 0 0 1-1.678-.326 1.477 1.477 0 0 1-.334-1.642c.117-.276.315-.511.568-.677a1.563 1.563 0 0 1 1.943.188c.29.282.451.665.451 1.065Zm2.448 14.677V8.204c0-.035.014-.068.039-.092a.135.135 0 0 1 .094-.038h1.825c.036 0 .07.013.095.038a.127.127 0 0 1 .039.092v.921h.037a4.188 4.188 0 0 1 1.308-.998 4.27 4.27 0 0 1 1.6-.425.134.134 0 0 1 .098.036.13.13 0 0 1 .04.094v1.809a.139.139 0 0 1-.037.085.145.145 0 0 1-.084.044 3.648 3.648 0 0 0-1.628.93 3.654 3.654 0 0 0-1.126 2.278 8.025 8.025 0 0 0-.063 1.034v5.631a.128.128 0 0 1-.08.12.136.136 0 0 1-.052.01h-1.972a.135.135 0 0 1-.094-.037.129.129 0 0 1-.04-.093ZM28.23 7.752a6.344 6.344 0 0 0-4.199 1.507V8.204a.13.13 0 0 0-.039-.09.135.135 0 0 0-.092-.039h-1.79a.133.133 0 0 0-.092.039.128.128 0 0 0-.038.09v15.36c0 .033.014.066.038.09a.133.133 0 0 0 .092.038h1.985a.133.133 0 0 0 .092-.038.128.128 0 0 0 .037-.09v-4.838a6.38 6.38 0 0 0 4.006 1.34c3.691 0 6.29-2.757 6.29-6.159 0-3.402-2.599-6.155-6.29-6.155Zm0 10.296c-2.235 0-4.047-1.852-4.047-4.137 0-2.286 1.815-4.138 4.039-4.138 2.223 0 4.053 1.854 4.053 4.138 0 2.283-1.81 4.137-4.053 4.137M48.72 8.069h-1.983a.133.133 0 0 0-.092.038.128.128 0 0 0-.038.09V9.21a6.355 6.355 0 0 0-4.153-1.46c-3.69 0-6.289 2.758-6.289 6.158 0 3.4 2.598 6.158 6.29 6.158a6.362 6.362 0 0 0 4.152-1.458v1.035c0 .034.014.066.038.09a.133.133 0 0 0 .092.039h1.982a.133.133 0 0 0 .094-.038.128.128 0 0 0 .038-.091V8.204a.128.128 0 0 0-.038-.09.133.133 0 0 0-.094-.039V8.07Zm-6.267 9.986c-2.236 0-4.047-1.852-4.047-4.138 0-2.285 1.811-4.137 4.047-4.137 2.235 0 4.046 1.853 4.046 4.137s-1.813 4.138-4.047 4.138Zm27.177-6.88a.14.14 0 0 1-.09-.03.136.136 0 0 1-.05-.08c-.132-.873-.87-1.305-1.88-1.305-.97 0-1.591.57-1.591 1.245 0 1.144 1.226 1.306 2.266 1.635 1.264.4 3.724 1.28 3.724 3.722 0 2.07-1.586 3.707-4.276 3.707-1.774 0-4.507-.908-4.586-4.019a.134.134 0 0 1 .088-.125.14.14 0 0 1 .054-.009h1.977a.137.137 0 0 1 .093.033.131.131 0 0 1 .046.086c.13 1.263 1.082 2.046 2.41 2.018 1.007-.022 1.873-.703 1.881-1.577.017-1.057-.872-1.507-2.117-1.92-1.369-.465-3.823-.938-3.823-3.432 0-1.733 1.512-3.38 3.973-3.38 1.909 0 3.79 1.05 3.934 3.285a.132.132 0 0 1-.041.098.14.14 0 0 1-.1.04l-1.893.008Z"/></g><defs><clipPath id="logo-colored_svg__a"><path fill="#fff" d="M0 0h72v24H0z"/></clipPath></defs></svg>