<svg viewBox="0 0 100 32" fill="none" xmlns="http://www.w3.org/2000/svg"><g clip-path="url('#clip0_5180_2455')" fill="#6EC3D8"><path d="M3.872 2.594a.277.277 0 0 0 .277-.277V2.11a.279.279 0 0 0-.277-.28H1.75c-.249 0-.485.022-.715.022-.229 0-.277-.08-.277-.382v-.447c0-.407.02-.466.277-.466.159 0 .438.02.715.02h2.527c.268 0 .525-.02.793-.02.267 0 .546.03.546.382 0 .351-.019.695-.019 1.04v.998c0 .308.029.625.029.932 0 .228-.128.258-.466.258h-.604c-.279 0-.382 0-.428-.158a.084.084 0 0 0-.088-.06H2.93c-.573 0-.487 0-.546.604a.206.206 0 0 0 0 .08c0 .15.118.191.239.191h1.744c.208 0 .535-.02.802-.02.625 0 .625.288.625.605 0 .852-.191 2.101-.525 2.865-.12.317-.353.579-.654.734-.5.176-1.027.26-1.557.246-.475 0-.743 0-.873-.326a2.73 2.73 0 0 1-.118-.793c0-.308.14-.348.407-.348.218 0 .435.04.752.04.383 0 .585-.019.744-.286.19-.372.288-.783.288-1.2 0-.23-.13-.267-.476-.267H2.445a.29.29 0 0 0-.267.177c-.05.1-.119.11-.258.11a4.173 4.173 0 0 1-.615-.05C1.127 6.28.84 6.24.84 6.023c0-.13.059-.556.118-1.05.078-.675.128-1.28.168-1.934.03-.416.218-.456.743-.456.298 0 .596.01.883.01l1.12.001Zm4.946 4.833c0 .537.019 1.081.019 1.616 0 .268-.097.289-.455.289h-.615c-.347 0-.447-.021-.447-.28 0-.544.03-1.079.03-1.625V1.182a5.808 5.808 0 0 0-.04-.724c0-.128.1-.137.192-.137.382 0 .705.01 1.169.038.18 0 .328.021.328.149 0 .06-.04.08-.099.14a.325.325 0 0 0-.09.267l.008 6.512ZM14.172 7.37c0 .279.209.328.436.367.674.13 2.262.14 3.213.14.382 0 1.735-.041 2.061-.07.089-.011.178-.018.268-.02.229 0 .248.238.248.416 0 .955-.19 1.012-1.16 1.012h-1.466c-1.19 0-2.182-.02-2.797-.08a3.712 3.712 0 0 1-1.418-.382 2.994 2.994 0 0 1-.764-.556.19.19 0 0 0-.13-.069c-.118 0-.137.218-.158.382-.1.656-.128.774-.277.774-.227 0-.923-.178-.923-.445a.479.479 0 0 1 .03-.11c.192-.654.268-1.636.287-2.36.012-.382.012-.644.012-.833 0-.336.01-.416.128-.416.118 0 .573.06.714.08.227.028.382.05.382.149 0 .05-.05.088-.08.109-.098.068-.098.099-.098.573 0 .1.01.382.148.382.05 0 .07-.06.07-.1v-.72c0-.833-.01-.882-.397-.882-.258 0-.506.03-.764.03-.22 0-.239-.09-.239-.382v-.516c0-.277.02-.382.239-.382.277 0 .544.03.821.03.191 0 .329-.08.329-.299v-.317a.238.238 0 0 0-.239-.246c-.218 0-.435.028-.665.028-.229 0-.237-.088-.237-.346v-.546c0-.267.02-.367.237-.367.191 0 .407.03.585.03.23 0 .319-.158.319-.366 0-.109-.021-.338-.03-.437a1.31 1.31 0 0 1 0-.168c0-.138.099-.15.208-.15.296 0 .783.031 1.09.05.088 0 .237.021.237.13 0 .06-.05.109-.109.159a.603.603 0 0 0-.109.435c0 .191.079.338.298.338.11 0 .277-.02.426-.02.228 0 .249.09.249.381v.547c0 .248-.021.336-.24.336-.158 0-.307-.02-.465-.02a.25.25 0 0 0-.268.268v.327c0 .18.15.248.308.248.191 0 .395-.019.604-.019.208 0 .238.109.238.336v.51c0 .337-.019.426-.238.426-.191 0-.383-.019-.554-.019a.12.12 0 0 0-.14.119c-.01.019-.019.028-.078.078a.405.405 0 0 0-.12.348c0 .109.02.218.158.218h.08c.228 0 .457-.03.585-.03l.1.01c.058 0 .058-.05.068-.108.02-.13.12-.159.248-.18.128-.021.14-.128.14-.227V2.877c0-.277-.021-.545-.021-.822 0-.328.149-.426.456-.426.268 0 .545.02.814.02h.327c.208 0 .267-.169.267-.348 0-.317-.03-.644-.03-.743 0-.178.108-.218.267-.218.12 0 .705.04.894.05a.59.59 0 0 1 .306.059c.032.02.07.03.109.03a.296.296 0 0 0 .13-.04c.145-.082.302-.143.466-.18.078 0 .217.18.366.507.075.142.135.292.178.447 0 .109-.178.191-.357.287-.038.019-.079.059-.079.09 0 .03.07.049.1.049.118 0 .227-.01.346-.01.19 0 .208.079.208.346v.585c0 .288-.02.347-.218.347-.308 0-.625-.019-.932-.019h-.277c-.178 0-.208.119-.208.268 0 .088.02.653.099.653.078 0 .149-.246.19-.395.043-.15.08-.23.192-.23.211.066.414.156.605.268.367.19.516.27.516.382 0 .078-.08.1-.149.118-.109.029-.158.191-.19.298a9.46 9.46 0 0 1-.635 1.229.552.552 0 0 0-.1.267c0 .119.09.338.18.338s.128-.382.138-.516c.01-.133.03-.19.17-.19.212.01.419.072.604.177.139.09.177.15.177.289a2.866 2.866 0 0 1-.346 1.268.929.929 0 0 1-.852.516 1.018 1.018 0 0 1-.764-.336c-.07-.08-.18-.209-.288-.209-.11 0-.296.159-.396.256-.13.13-.475.428-.645.428-.237 0-.852-.596-.852-.783 0-.09.069-.13.14-.17a5.73 5.73 0 0 0 1.01-.842.712.712 0 0 0 .277-.486 1.733 1.733 0 0 0-.05-.326 17.69 17.69 0 0 1-.227-1.834c-.02-.23-.03-.426-.228-.426h-.18a.235.235 0 0 0-.236.237v1.516c0 .11.01.18.109.18a.721.721 0 0 0 .168-.04.403.403 0 0 1 .168-.04c.208 0 .218.336.218.573 0 .573-.078.625-.287.703-.449.17-.91.308-1.377.416-.07.01-.08.04-.12.12a.12.12 0 0 1-.119.079c-.078 0-.118-.109-.168-.317-.03-.14-.08-.327-.118-.327-.039 0-.05.119-.05.237v.218c0 .18-.011.298-.22.298-.177 0-.355-.029-.535-.029-.208 0-.296.069-.317.277l-.024.369Zm4.818-5.731c.05 0 .1-.02.1-.08 0-.061-.308-.764-.383-.764-.074 0-.059.109-.059.19v.272c0 .22.038.367.287.397l.055-.015ZM25.092 1.083c.084.021.229.063.229.145a.097.097 0 0 1-.073.084c-.166.094-.19.22-.238.48a19.575 19.575 0 0 0-.335 3.893c0 .821 0 1.664.833 1.664a2.227 2.227 0 0 0 1.677-.885c.342-.44.57-.959.665-1.509.042-.208.075-.395.25-.395.23 0 .541.28.71.428.167.147.498.447.498.707 0 .313-.29.999-.447 1.28-.667 1.228-1.844 2.04-3.269 2.04-.74 0-1.528-.25-2.01-.854C23.064 7.496 23 6.39 23 5.559c0-1.196.105-2.483.191-3.601.021-.218.032-.573.032-.812 0-.239 0-.365.176-.365.237 0 1.37.23 1.693.302ZM32.307 1.698a7.48 7.48 0 0 0 .136-.563c.03-.191.041-.29.177-.29.524.155 1.038.343 1.54.56.208.094.271.158.271.21 0 .05-.032.062-.072.083a.627.627 0 0 0-.383.426 8.384 8.384 0 0 0-.638 2.953c0 .574 0 .852.136.852.073 0 .124-.082.176-.166.051-.084.126-.218.239-.218.112 0 .542.354.542.51 0 .157-.458.956-.458 1.51 0 .072.02.332.042.489.01.063.03.238.03.302 0 .382-.764.687-1.093.687-.19 0-.292-.135-.479-.51-.51-1.031-.665-2.197-.665-3.34a12.78 12.78 0 0 1 .499-3.495Zm2.978 4.464c.436.522.78.698 1.456.698a8.443 8.443 0 0 0 2.28-.333c.082-.024.166-.038.25-.042.135 0 .192.136.209.23.036.36.053.721.052 1.083 0 .135-.012.208-.146.27-.364.177-2.1.333-2.57.333-1.678 0-2.417-.833-2.417-1.073 0-.191.521-1.248.764-1.248.048 0 .09.052.122.082Zm-.021-4.506c.108.006.216.02.323.042.452.09.912.138 1.373.145a6.416 6.416 0 0 0 1.54-.208.907.907 0 0 1 .208-.03c.191 0 .262.217.281.382.037.283.058.568.063.853 0 .249-.03.323-.302.363-.579.084-1.163.126-1.748.127-.313 0-1.75-.054-1.946-.22-.084-.073-.084-.382-.084-.499 0-.781.042-.955.292-.955ZM46.195.615c.093.042.166.094.166.166 0 .073-.042.084-.094.105-.166.073-.25.115-.382.499l-.19.573a.426.426 0 0 0-.043.166c0 .208.145.25.48.271.248.021.498.031.748.031.191 0 .323 0 .323.23a4.746 4.746 0 0 1-.156.926c-.073.271-.124.365-.281.365-.433-.02-.864-.066-1.291-.136a.19.19 0 0 0-.083-.012c-.24 0-.28.192-.323.396l-.02.084a.83.83 0 0 0-.021.166c0 .271.28.281 1.03.281.282 0 .448.011.448.191-.017.34-.081.676-.191 1-.075.219-.147.333-.395.333a8.666 8.666 0 0 1-.866-.093.16.16 0 0 0-.072-.012c-.218 0-.24.209-.24.335v.06c-.007.235.043.468.146.679.166.332.636.468.99.468.389.007.774-.079 1.123-.25a.75.75 0 0 0 .334-.677 5.14 5.14 0 0 0-.313-1.467.726.726 0 0 1-.052-.24c0-.136.073-.191.382-.312.282-.108.576-.182.875-.22.191 0 .239.192.344.522.204.597.316 1.222.333 1.853a1.979 1.979 0 0 1-.927 1.779c-.642.379-1.378.57-2.124.552-1.79 0-2.717-1.042-2.717-2.8 0-.125.033-.436.033-.457 0-.23-.168-.281-.313-.335-.688-.239-.822-.323-.822-.51.024-.24.072-.477.145-.707.073-.27.145-.573.382-.573.111.012.216.056.302.126.133.098.285.163.447.191.084 0 .191-.042.24-.261.032-.11.056-.22.073-.333 0-.19-.124-.27-.28-.332-.854-.313-.896-.428-.896-.573 0-.22.25-1.27.552-1.27a.823.823 0 0 1 .382.19c.17.118.355.21.552.272.166 0 .218-.126.26-.283.084-.29.239-.812.344-1.217.042-.166.051-.229.145-.229.513.135 1.018.298 1.513.489ZM57.593 5.393c0 1.337-.936 2.196-2.1 2.653-.383.157-1.25.428-1.646.428-.19 0-.28-.124-.363-.28a2.673 2.673 0 0 1-.261-.834c0-.166.168-.22.397-.239.955-.095 2.59-.53 2.59-1.738 0-.563-.437-.823-.955-.823-.926 0-2.185.53-2.976 1.01a.827.827 0 0 1-.382.134c-.353 0-.864-.852-.864-1.186 0-.176.127-.209.438-.29.191-.052.552-.192.764-.26.885-.314 2.061-.751 2.997-.751 1.32 0 2.361.781 2.361 2.176ZM61.655.667c.279-.044.56-.071.842-.083.281 0 .302.021.382.8.027.425.086.847.178 1.262.03.124.082.269.239.269.19 0 1.125-.552 1.354-.686.155-.093.686-.416.822-.416.135 0 .332.323.479.561.115.191.426.698.426.894 0 .115-.115.157-.332.23-.043.02-.094.032-.148.053a17.888 17.888 0 0 0-3.278 1.645c-.5.311-1.216.78-1.216 1.32 0 .7 1.32.7 1.799.7.529.003 1.057-.025 1.582-.085.22-.03.938-.145 1.104-.191.03 0 .072-.01.103-.01.105 0 .136.178.147.26.03.302.042.646.042.955 0 .31-.011.407-.283.48-.477.124-2.279.176-2.852.176-.821 0-1.54-.052-2.267-.468a2.038 2.038 0 0 1-1.041-1.78c0-1.03.74-1.894 1.56-2.425.157-.094.25-.145.25-.323a.905.905 0 0 0-.062-.25c-.082-.28-.157-.573-.23-.875a14.973 14.973 0 0 0-.437-1.591.608.608 0 0 1-.03-.126c-.008-.14.116-.203.867-.296ZM72.882 1.54c0 .148.12.158.269.158h1.219c.347 0 .693-.021 1.04-.021.348 0 .536.11.536.487 0 .336-.031.674-.031 1.01v4.7c0 .382.03.774.03 1.17 0 .238-.099.267-.446.267h-.713c-.288 0-.397-.03-.397-.277v-.1a.273.273 0 0 0-.277-.267h-3.133a.273.273 0 0 0-.277.267v.11c0 .247-.119.267-.417.267h-.674c-.367 0-.466-.03-.466-.268 0-.395.03-.783.03-1.169V3.167c0-.336-.02-.674-.02-1.01 0-.383.168-.488.525-.488s.695.021 1.04.021h.12a.54.54 0 0 0 .536-.366 7.76 7.76 0 0 0 .296-.873c.04-.128.08-.178.18-.178.1 0 1.169.218 1.368.267.198.05.267.06.267.168 0 .11-.06.14-.158.16-.1.018-.15.03-.191.129 0 .019-.03.05-.05.088a2.58 2.58 0 0 0-.206.454Zm-2.21 1.883a.228.228 0 0 0 .238.237h3.27a.233.233 0 0 0 .24-.237v-.149a.236.236 0 0 0-.24-.239h-3.27a.235.235 0 0 0-.239.239v.149Zm0 1.824a.285.285 0 0 0 .278.277h3.192a.283.283 0 0 0 .277-.277v-.13a.277.277 0 0 0-.277-.277H70.95a.266.266 0 0 0-.279.277v.13Zm0 1.853a.285.285 0 0 0 .278.277h3.192a.283.283 0 0 0 .277-.277v-.128a.285.285 0 0 0-.277-.279H70.95a.266.266 0 0 0-.279.28V7.1ZM81.419 2.233a.265.265 0 0 0 .267-.267v-.743a5.414 5.414 0 0 0-.02-.596 2.693 2.693 0 0 1-.018-.218c0-.118.1-.138.19-.138.13 0 .893.07 1.053.079.268.019.455.04.455.168 0 .07-.05.1-.109.158a.332.332 0 0 0-.09.258v1.013a.282.282 0 0 0 .249.286h1.467c.338 0 .674-.019 1-.019.328 0 .507.119.507.476 0 .317-.019.625-.019.942v4.153c0 .382.029.764.029 1.146 0 .239-.128.267-.317.267h-.765c-.395 0-.454-.028-.454-.277a.242.242 0 0 0-.23-.248h-4.393c-.191 0-.237.18-.237.338 0 .191-.23.191-.382.191h-.764c-.239 0-.367-.029-.367-.277 0-.382.029-.764.029-1.146V3.632c0-.317-.02-.625-.02-.942 0-.357.16-.476.495-.476.337 0 .675.02 1.003.02h1.44Zm.267 1.626a.275.275 0 0 0-.277-.277h-1.19a.283.283 0 0 0-.277.277v.634a.285.285 0 0 0 .277.28h1.19a.271.271 0 0 0 .277-.28V3.86Zm0 2.483a.276.276 0 0 0-.277-.279h-1.19a.284.284 0 0 0-.277.28v.702a.283.283 0 0 0 .277.277h1.19a.266.266 0 0 0 .277-.277v-.703Zm1.467-1.854a.274.274 0 0 0 .279.278h1.16a.277.277 0 0 0 .277-.279v-.634a.277.277 0 0 0-.277-.277h-1.16a.277.277 0 0 0-.279.277v.634Zm0 2.557a.278.278 0 0 0 .279.277h1.16a.275.275 0 0 0 .277-.277v-.703a.276.276 0 0 0-.277-.279h-1.16a.268.268 0 0 0-.279.28v.702ZM92.743.493c.19.084.323.156.323.25 0 .093-.115.115-.191.136a.673.673 0 0 0-.281.395c0 .082.051.115.124.115.288-.05.57-.127.844-.23a.877.877 0 0 1 .29-.072c.23 0 .281.218.323.405.069.277.11.56.127.844 0 .155-.094.191-.667.302-.573.11-1.28.227-1.926.302-.334.04-.353.27-.353.28 0 .052.052.073.094.073a.322.322 0 0 0 .093-.032c.284-.103.583-.155.885-.155.26-.01.517.048.748.166.238.126.417.339.5.594a.191.191 0 0 0 .177.124c.105 0 .657-.313.968-.489.094-.051.166-.093.208-.114a.361.361 0 0 1 .136-.052c.26 0 .625 1.196.625 1.437 0 .133-.105.166-.314.238-.498.192-.811.323-1.289.52-.25.105-.292.191-.292.48 0 .124.011.382.011.603 0 .667-.011.676-.594.676-.718 0-.936-.03-.936-.353.002-.094.008-.188.02-.28v-.05a.132.132 0 0 0-.125-.148c-.103 0-.625.335-.625.698 0 .521.885.521 1.25.521a8.8 8.8 0 0 0 1.937-.26c.085-.02.172-.03.26-.032.248 0 .26.382.26 1.041 0 .396-.022.5-.324.562-.669.09-1.344.132-2.019.126-.728 0-1.207-.052-1.822-.335a1.69 1.69 0 0 1-1.06-1.612c0-.978.737-1.541 1.497-1.988.178-.104.382-.218.573-.312.094-.042.178-.093.178-.208a.297.297 0 0 0-.323-.271c-.395 0-1.114.365-1.427.603-.489.382-.8.936-1.102 1.479a.174.174 0 0 1-.157.115c-.229 0-1.291-.574-1.291-.833 0-.084.063-.147.191-.281.428-.49 1.104-1.572 1.437-2.04a.237.237 0 0 0 .063-.147.152.152 0 0 0-.157-.146c-.124 0-.27.012-.405.012-.355 0-.382-.033-.382-.812 0-.646.042-.657.382-.657.23 0 .604.02.955.02.51 0 .604-.041.688-.19.22-.407.384-.841.489-1.292.03-.154.051-.229.155-.229.425.146.843.313 1.25.503ZM100 7.526a1.413 1.413 0 1 1-2.825-.007 1.413 1.413 0 0 1 2.825.007Zm-2.25 0a.838.838 0 1 0 .83-.833.837.837 0 0 0-.838.833h.008ZM5.74 31.741a9.528 9.528 0 0 1-2.978-.492C1.748 30.916.164 29.877.164 29.877a.367.367 0 0 1-.105-.506l1.263-1.943a.382.382 0 0 1 .508-.11c.615.394 1.26.739 1.93 1.03.665.259 1.37.397 2.084.41.561 0 .976-.094 1.24-.281a.764.764 0 0 0 .31-.382 5.61 5.61 0 0 0 .087-.383c0-.015-.033-.19-.073-.382 0 0 0-.024-.158-.177a1.976 1.976 0 0 0-.627-.398 9.479 9.479 0 0 0-.907-.319c-.343-.102-.7-.212-1.074-.332-.49-.14-.973-.307-1.446-.499a5.092 5.092 0 0 1-1.316-.764 3.745 3.745 0 0 1-.955-1.163c-.249-.46-.335-1.324-.335-1.324-.02-.2-.036-.382-.036-.382s.015-.191.036-.382c0 0 .096-.955.36-1.49a4.13 4.13 0 0 1 1.075-1.37 4.567 4.567 0 0 1 1.584-.842 6.602 6.602 0 0 1 1.958-.283c.898.005 1.79.147 2.645.422.742.27 1.46.6 2.15.986a.37.37 0 0 1 .14.499l-1.128 2.046a.382.382 0 0 1-.5.148 17.605 17.605 0 0 0-1.672-.764 5.23 5.23 0 0 0-1.72-.343 1.774 1.774 0 0 0-1.073.267.68.68 0 0 0-.273.323 6.393 6.393 0 0 0-.084.382c0 .015.034.19.076.382l.153.145c.184.165.392.303.615.409.286.141.58.265.88.37.333.12.687.24 1.063.358.477.155.963.338 1.457.55a6.06 6.06 0 0 1 1.338.78c.393.309.723.69.972 1.124.254.446.344 1.25.344 1.25.02.19.038.382.038.382s-.013.19-.032.382c0 0-.1 1.064-.363 1.618a3.66 3.66 0 0 1-1.112 1.368 5.002 5.002 0 0 1-1.676.806 7.59 7.59 0 0 1-2.065.246ZM14.589 18.146a.367.367 0 0 1 .365-.367h3.156a.369.369 0 0 1 .366.367v1.228c0 .2.104.237.23.082 0 0 .235-.288.498-.554.267-.268.563-.506.883-.709a4.37 4.37 0 0 1 1.087-.489 5.12 5.12 0 0 1 3.683.382c.655.383 1.312 1.324 1.312 1.324a.295.295 0 0 0 .466.04s1.003-1.006 1.737-1.375c.78-.38 1.639-.57 2.506-.554 1.448 0 2.581.426 3.4 1.278.82.852 1.177 3.396 1.177 3.396.032.242.049.485.052.728v8.194a.367.367 0 0 1-.367.364h-3.156a.367.367 0 0 1-.365-.365V24.22a7.166 7.166 0 0 0-.044-.727s-.153-1.25-.544-1.72c-.392-.47-.955-.703-1.687-.703a2.196 2.196 0 0 0-1.72.703c-.418.466-.572 1.72-.572 1.72-.03.241-.046.484-.048.727v6.896a.367.367 0 0 1-.365.365h-3.17a.367.367 0 0 1-.366-.365V24.22a7.166 7.166 0 0 0-.044-.727s-.15-1.25-.542-1.72-.956-.703-1.69-.703a2.19 2.19 0 0 0-1.718.703c-.419.466-.573 1.72-.573 1.72a7.138 7.138 0 0 0-.046.727v6.896a.367.367 0 0 1-.367.365h-3.17a.367.367 0 0 1-.364-.365v-12.97ZM46.367 31.793a7.746 7.746 0 0 1-2.942-.55 7.177 7.177 0 0 1-2.34-1.508 7.048 7.048 0 0 1-1.546-2.25c-.382-.861-.527-2.41-.527-2.41-.02-.201-.036-.383-.036-.383l.036-.382s.15-1.549.527-2.41a7.069 7.069 0 0 1 1.559-2.264 7.423 7.423 0 0 1 2.354-1.528 8.122 8.122 0 0 1 5.906-.012 7.18 7.18 0 0 1 2.346 1.486 7.084 7.084 0 0 1 1.547 2.25c.382.862.526 2.411.526 2.411.02.201.036.383.036.383s-.015.19-.036.381c0 0-.151 1.55-.526 2.411a7.109 7.109 0 0 1-1.56 2.264 7.377 7.377 0 0 1-2.352 1.528 7.682 7.682 0 0 1-2.972.583Zm.051-3.349a3.631 3.631 0 0 0 1.496-.294 3.32 3.32 0 0 0 1.112-.806c.31-.346.549-.75.703-1.188.11-.352.182-.714.214-1.082l.028-.382s-.013-.19-.03-.382a4.81 4.81 0 0 0-.226-1.08 3.63 3.63 0 0 0-1.89-2.034 3.437 3.437 0 0 0-1.458-.307 3.615 3.615 0 0 0-1.496.294 3.307 3.307 0 0 0-1.114.806c-.31.347-.548.75-.703 1.188-.11.352-.181.715-.212 1.082-.017.2-.03.382-.03.382s.013.19.03.382c.035.367.11.73.226 1.081a3.662 3.662 0 0 0 1.88 2.033c.46.21.963.315 1.47.307ZM64.043 31.793a7.743 7.743 0 0 1-2.94-.544 7.178 7.178 0 0 1-2.33-1.513 7.086 7.086 0 0 1-1.548-2.25c-.382-.862-.528-2.412-.528-2.412-.019-.2-.034-.382-.034-.382s.015-.19.035-.382c0 0 .152-1.549.527-2.41a7.11 7.11 0 0 1 1.547-2.28 7.412 7.412 0 0 1 2.352-1.528 7.677 7.677 0 0 1 2.966-.561 7.76 7.76 0 0 1 2.942.55c.871.345 1.666.857 2.34 1.507a7.047 7.047 0 0 1 1.546 2.25c.382.862.527 2.411.527 2.411.02.2.036.382.036.382l-.036.382s-.151 1.55-.527 2.411a7.069 7.069 0 0 1-1.56 2.264 7.389 7.389 0 0 1-2.353 1.528 7.671 7.671 0 0 1-2.962.577Zm.051-3.349c.514.01 1.024-.09 1.496-.294a3.307 3.307 0 0 0 1.114-.806c.309-.347.548-.75.703-1.188.109-.352.18-.715.212-1.081.017-.201.03-.383.03-.383s-.013-.19-.032-.382a4.874 4.874 0 0 0-.224-1.08 3.63 3.63 0 0 0-1.893-2.033 3.438 3.438 0 0 0-1.457-.308 3.63 3.63 0 0 0-1.496.294 3.318 3.318 0 0 0-1.112.806c-.31.346-.549.75-.703 1.188-.11.352-.182.715-.214 1.082l-.029.382s.014.19.031.382c.033.368.109.73.225 1.081a3.662 3.662 0 0 0 1.88 2.033c.46.21.963.315 1.47.307ZM79.418 31.716a6.302 6.302 0 0 1-1.623-.19 2.866 2.866 0 0 1-1.257-.679 3.247 3.247 0 0 1-.818-1.266c-.19-.52-.27-1.616-.27-1.616-.013-.201-.024-.53-.024-.73V21.47a.367.367 0 0 0-.365-.365h-.905a.367.367 0 0 1-.367-.365v-2.594a.369.369 0 0 1 .367-.367h.905a.367.367 0 0 0 .365-.365v-2.772a.367.367 0 0 1 .365-.365h3.158a.366.366 0 0 1 .364.365v2.772a.366.366 0 0 0 .365.365h2.484a.367.367 0 0 1 .365.367v2.596a.367.367 0 0 1-.365.365h-2.484a.366.366 0 0 0-.365.364v5.147c.007.242.044.482.11.714 0 0 .307.984 1.145.984.683 0 1.58-.37 1.58-.37a.227.227 0 0 1 .338.225v2.39a.65.65 0 0 1-.326.529c-.332.163-.677.3-1.03.41a6.099 6.099 0 0 1-1.712.216ZM86.382 13.185a.367.367 0 0 1 .364-.365h3.164a.367.367 0 0 1 .365.365v6.189c0 .2.103.237.23.082 0 0 .234-.288.498-.554.267-.267.563-.505.882-.709a4.45 4.45 0 0 1 1.076-.489 4.523 4.523 0 0 1 1.337-.18c1.482 0 2.628.452 3.438 1.355.797.908 1.152 3.372 1.152 3.372.032.241.049.484.052.728v8.141a.367.367 0 0 1-.365.365h-3.16a.367.367 0 0 1-.365-.365v-6.896a7.164 7.164 0 0 0-.045-.727s-.159-1.25-.573-1.72c-.415-.47-.99-.703-1.739-.703a2.312 2.312 0 0 0-1.778.703c-.434.466-.602 1.72-.602 1.72-.03.241-.047.484-.05.727v6.896a.367.367 0 0 1-.365.365h-3.152a.367.367 0 0 1-.364-.365V13.185Z"/></g><defs><clipPath id="clip0_5180_2455"><path fill="#fff" d="M0 0h100v31.793H0z"/></clipPath></defs></svg>