<svg xmlns="http://www.w3.org/2000/svg" viewBox="0 0 300 300"><g transform="translate(-231.54 -375.82)"><ellipse cx="381.54" cy="525.82" rx="143.458" ry="143.45" fill="#FE7829"/><path fill="#fff" d="M1005.12 267.465c-1.03 0-1.874.841-1.874 1.87v29.52a1.88 1.88 0 0 0 1.873 1.875h42.172a1.88 1.88 0 0 0 1.873-1.875v-29.52c0-1.029-.844-1.87-1.873-1.87h-42.172zm4.991 4.484h32.176l-16.086 14.055-16.09-14.055zm35.307 2.238v20.764l-11.764-10.486 11.764-10.278zm-38.426.012 11.813 10.322-11.813 10.532v-20.854zm23.82 12.748 11.192 9.979h-31.482l11.126-9.92 3.317 2.898a1.88 1.88 0 0 0 2.465 0l3.383-2.957z" transform="matrix(3.81893 0 0 3.81893 -3537.467 -559.127)"/></g></svg>
