<svg xmlns="http://www.w3.org/2000/svg" xml:space="preserve" x="0" y="0" version="1.1" viewBox="0 0 84.1 14.8"><path d="M78.7 12.1v-4l.3-.2c1.4-.6 2.9 1.1 2.9 2.7v1.5c0 .2.1.3.3.3h1.5c.2 0 .3-.1.3-.3v-1.5c0-1.8-.9-3.3-2.3-4.2-.1-.1-.1-.3 0-.4l2.2-1.5s.1-.1.1-.2V2.5c0-.2-.2-.4-.4-.2l-4.6 3c-.2.1-.4 0-.4-.2V.3c0-.2-.1-.3-.3-.3h-1.5c-.2 0-.3.1-.3.3v11.8c0 .2.1.3.3.3h1.5c.2 0 .4-.1.4-.3zM5.1 2.7c-2.8 0-5 2.2-5 5s2.2 5 5 5 5-2.2 5-5-2.3-5-5-5zm0 7.9c-1.6 0-3-1.3-3-3 0-1.6 1.3-3 3-3 1.6 0 3 1.3 3 3-.1 1.7-1.4 3-3 3zM63.8 2.7c-2.8 0-5 2.2-5 5s2.2 5 5 5 5-2.2 5-5-2.3-5-5-5zm0 7.9c-1.6 0-3-1.3-3-3 0-1.6 1.3-3 3-3 1.6 0 3 1.3 3 3-.1 1.7-1.4 3-3 3zM48.8 12.3l2.2-5c.1-.2.3-.2.4 0l2.2 4.9c0 .1.1.2.3.2h.5c.1 0 .2-.1.3-.2l3.9-9c.1-.2-.1-.4-.3-.4h-1.5c-.1 0-.2.1-.3.2l-2.2 5.1c-.1.2-.3.2-.4 0L51.7 3c0-.1-.1-.2-.3-.2H51c-.1 0-.2.1-.3.2l-2.2 5.1c-.1.2-.3.2-.4 0l-2.1-5c0-.1-.1-.2-.3-.2h-1.5c-.2 0-.3.2-.3.4l3.8 9c0 .1.1.2.3.2h.5c.2-.1.3-.1.3-.2zM32.5 7.7c0-2.9-2.4-5.2-5.4-5-2.5.2-4.5 2.2-4.6 4.6-.2 2.9 2.1 5.4 5 5.4 1.4 0 2.7-.6 3.7-1.6.1-.1.1-.3 0-.4l-1.1-1c-.1-.1-.3-.1-.4 0-.5.5-1.3.9-2.1.9-1.3 0-2.3-.8-2.8-1.9-.1-.1.1-.3.2-.3h7.2c.1 0 .3-.1.3-.3v-.4zm-5-2.9c1.1 0 2.1.6 2.6 1.5.1.2 0 .3-.2.3h-4.8c-.2 0-.3-.2-.2-.3.5-.9 1.5-1.5 2.6-1.5zM16.7 2.8c-1.1-.1-2 .2-2.9.7l-.4.7v-1c0-.2-.1-.3-.3-.3h-1.5c-.2 0-.3.1-.3.3v11.2c0 .2.1.3.3.3h1.5c.2 0 .3-.1.3-.3V12c0-.2.2-.3.4-.2.8.5 1.7.8 2.6.8 2.8 0 5.1-2.4 4.9-5.2-.1-2.5-2.1-4.5-4.6-4.6zm0 7.7c-1.8.2-3.3-1.3-3.1-3.1.1-1.3 1.2-2.4 2.5-2.5 1.8-.2 3.3 1.3 3.1 3.1-.1 1.3-1.2 2.4-2.5 2.5zM38.7 3c-.8 0-1.6.2-2.3.6l-.4.6v-1c0-.2-.1-.3-.3-.3h-1.5c-.1 0-.2.1-.2.3v8.9c0 .2.1.3.3.3h1.5c.2 0 .3-.1.3-.3V7.7C36 6.2 37.2 5 38.7 5s2.7 1.3 2.7 2.8v4.4c0 .2.1.3.3.3h1.5c.2 0 .3-.1.3-.3V7.7c0-2.6-2.2-4.7-4.8-4.7zM72.7 3.5l-.4.5v-.9c0-.2-.1-.3-.3-.3h-1.5c-.2 0-.3.1-.3.3v9c0 .2.1.3.3.3H72c.2 0 .3-.1.3-.3V7.6v.1c0-1.4 1.1-2.7 2.6-2.8.1 0 .3-.1.3-.3V3.2c0-.2-.1-.3-.3-.3-.8 0-1.6.3-2.2.6z" fill="#0C7BC9"/></svg>
