<svg viewBox="0 0 100 32" fill="none" xmlns="http://www.w3.org/2000/svg">
<g clip-path="url(#clip0_5180_2455)">
<path d="M3.87216 2.59405C3.94563 2.59405 4.01608 2.56486 4.06802 2.51292C4.11997 2.46097 4.14915 2.39052 4.14915 2.31706V2.10883C4.14916 2.03519 4.12003 1.96454 4.06814 1.91229C4.01625 1.86004 3.9458 1.83044 3.87216 1.82993H1.74983C1.50149 1.82993 1.26461 1.85094 1.03538 1.85094C0.806141 1.85094 0.758385 1.77071 0.758385 1.46889V1.02188C0.758385 0.614985 0.777487 0.555766 1.03538 0.555766C1.19393 0.555766 1.47283 0.576779 1.74983 0.576779H4.27714C4.54458 0.576779 4.80248 0.555766 5.06992 0.555766C5.33736 0.555766 5.61626 0.586331 5.61626 0.937824C5.61626 1.28932 5.59716 1.63317 5.59716 1.97893V2.97611C5.59716 3.28366 5.62581 3.60077 5.62581 3.90833C5.62581 4.13565 5.49782 4.16622 5.1597 4.16622H4.55605C4.27715 4.16622 4.17399 4.16622 4.12814 4.00766C4.12252 3.98921 4.11071 3.97325 4.09471 3.96246C4.07871 3.95168 4.05949 3.94673 4.04027 3.94844H2.93039C2.3573 3.94844 2.44326 3.94845 2.38405 4.5521C2.3788 4.57858 2.3788 4.60584 2.38405 4.63233C2.38405 4.78133 2.50248 4.82336 2.62283 4.82336H4.36693C4.57515 4.82336 4.90181 4.80235 5.16925 4.80235C5.79392 4.80235 5.79392 5.0908 5.79392 5.40791C5.79392 6.2599 5.60289 7.50923 5.26859 8.27335C5.14916 8.59033 4.91636 8.85172 4.61527 9.0069C4.11551 9.18264 3.58798 9.26613 3.05838 9.25332C2.58272 9.25332 2.31527 9.25333 2.18537 8.92667C2.1071 8.66968 2.06719 8.40254 2.06694 8.1339C2.06694 7.82634 2.20639 7.78622 2.47383 7.78622C2.6916 7.78622 2.90937 7.82634 3.22648 7.82634C3.60854 7.82634 3.81103 7.80724 3.96959 7.53979C4.15922 7.16833 4.25807 6.7572 4.25804 6.34013C4.25804 6.1109 4.12814 6.07269 3.78238 6.07269H2.44517C2.38807 6.07272 2.33223 6.08959 2.28466 6.12119C2.23709 6.15279 2.1999 6.19772 2.17773 6.25035C2.12807 6.34968 2.05929 6.35924 1.91984 6.35924C1.71386 6.35789 1.50826 6.34128 1.30473 6.30957C1.12707 6.28091 0.840529 6.2408 0.840529 6.02302C0.840529 5.89312 0.899747 5.46713 0.958966 4.97236C1.03729 4.29803 1.08696 3.69247 1.12707 3.03915C1.15764 2.6227 1.34485 2.58259 1.87018 2.58259C2.16818 2.58259 2.46619 2.59214 2.75273 2.59214L3.87216 2.59405ZM8.81791 7.42709C8.81791 7.96388 8.83702 8.50832 8.83702 9.0432C8.83702 9.31064 8.73959 9.33165 8.38236 9.33165H7.76725C7.41958 9.33165 7.32024 9.31064 7.32024 9.05275C7.32024 8.50831 7.35081 7.97343 7.35081 7.42709V1.18234C7.35253 0.940408 7.33913 0.698605 7.31069 0.458342C7.31069 0.330352 7.41003 0.320801 7.50172 0.320801C7.88378 0.320801 8.20662 0.330352 8.67082 0.359006C8.85039 0.359006 8.99939 0.380019 8.99939 0.508009C8.99939 0.567228 8.95927 0.58824 8.90005 0.647459C8.86594 0.682416 8.84015 0.724617 8.8246 0.770922C8.80906 0.817226 8.80416 0.866442 8.81027 0.914902L8.81791 7.42709Z" fill="#6EC3D8"/>
<path d="M14.1725 7.36988C14.1725 7.64878 14.3807 7.69845 14.608 7.73665C15.2823 7.86655 16.8698 7.8761 17.8211 7.8761C18.2032 7.8761 19.5557 7.83599 19.8823 7.80733C19.971 7.79566 20.0603 7.78865 20.1498 7.78632C20.379 7.78632 20.3981 8.0251 20.3981 8.20276C20.3981 9.15791 20.2071 9.21522 19.2386 9.21522H17.7715C16.5813 9.21522 15.5899 9.1942 14.9748 9.13498C14.4816 9.10327 13.9997 8.97338 13.5573 8.75293C13.2748 8.60925 13.0169 8.42162 12.7932 8.19703C12.7772 8.17756 12.7575 8.16146 12.7352 8.14965C12.7129 8.13785 12.6885 8.13058 12.6633 8.12826C12.5449 8.12826 12.5258 8.34604 12.5048 8.51032C12.4054 9.16555 12.3768 9.28399 12.2278 9.28399C12.0005 9.28399 11.3051 9.10633 11.3051 8.83889C11.3108 8.80087 11.3211 8.76367 11.3357 8.72809C11.5267 8.07477 11.6031 7.09288 11.6222 6.36888C11.6337 5.98682 11.6337 5.72511 11.6337 5.53599C11.6337 5.19978 11.6432 5.11955 11.7617 5.11955C11.8801 5.11955 12.3348 5.18068 12.4761 5.19978C12.7034 5.22844 12.8582 5.24945 12.8582 5.34879C12.8582 5.39845 12.8085 5.43666 12.7779 5.45767C12.6805 5.52644 12.6805 5.55701 12.6805 6.03076C12.6805 6.1301 12.6901 6.41282 12.8276 6.41282C12.8773 6.41282 12.8983 6.3536 12.8983 6.31348V5.5933C12.8983 4.76042 12.8887 4.71075 12.501 4.71075C12.2431 4.71075 11.9947 4.74131 11.7368 4.74131C11.5172 4.74131 11.4981 4.65153 11.4981 4.35926V3.84347C11.4981 3.56648 11.5172 3.46142 11.7368 3.46142C12.0138 3.46142 12.2813 3.49007 12.5583 3.49007C12.7493 3.49007 12.8868 3.41175 12.8868 3.19207V2.87496C12.8881 2.84289 12.8829 2.8109 12.8715 2.78092C12.86 2.75094 12.8426 2.7236 12.8203 2.70056C12.7979 2.67751 12.7712 2.65924 12.7416 2.64686C12.7119 2.63448 12.6801 2.62824 12.648 2.62853C12.4303 2.62853 12.2125 2.65718 11.9833 2.65718C11.754 2.65718 11.7464 2.56931 11.7464 2.31142V1.76508C11.7464 1.49764 11.7655 1.3983 11.9833 1.3983C12.1743 1.3983 12.3902 1.42886 12.5678 1.42886C12.7971 1.42886 12.8868 1.27031 12.8868 1.06209C12.8868 0.953201 12.8658 0.723968 12.8563 0.624632C12.8527 0.568654 12.8527 0.512504 12.8563 0.456526C12.8563 0.318984 12.9556 0.307523 13.0645 0.307523C13.3606 0.307523 13.8477 0.338087 14.1553 0.35719C14.2431 0.35719 14.3921 0.378204 14.3921 0.487091C14.3921 0.54631 14.3425 0.595978 14.2833 0.645646C14.1923 0.77143 14.1533 0.92741 14.1744 1.08119C14.1744 1.27222 14.2527 1.41931 14.4724 1.41931C14.5813 1.41931 14.7494 1.3983 14.8984 1.3983C15.1257 1.3983 15.1467 1.48809 15.1467 1.78036V2.3267C15.1467 2.57504 15.1257 2.66291 14.9079 2.66291C14.7494 2.66291 14.6004 2.64381 14.4418 2.64381C14.406 2.64125 14.3701 2.64642 14.3365 2.65896C14.3029 2.6715 14.2724 2.69111 14.247 2.71647C14.2217 2.74184 14.2021 2.77235 14.1895 2.80596C14.177 2.83957 14.1718 2.87548 14.1744 2.91125V3.23791C14.1744 3.41748 14.3234 3.48625 14.4819 3.48625C14.673 3.48625 14.8774 3.46715 15.0856 3.46715C15.2938 3.46715 15.3244 3.57603 15.3244 3.80336V4.31341C15.3244 4.64962 15.3053 4.7394 15.0856 4.7394C14.8946 4.7394 14.7035 4.7203 14.5316 4.7203C14.5144 4.71754 14.4969 4.71853 14.4801 4.72321C14.4634 4.72789 14.4478 4.73614 14.4346 4.74739C14.4213 4.75865 14.4107 4.77264 14.4033 4.78841C14.396 4.80418 14.3922 4.82135 14.3921 4.83874C14.3826 4.85784 14.373 4.86739 14.3138 4.91706C14.2677 4.96139 14.2328 5.01601 14.2119 5.07644C14.191 5.13687 14.1847 5.2014 14.1935 5.26473C14.1935 5.37362 14.2145 5.48251 14.352 5.48251H14.4323C14.6596 5.48251 14.8888 5.45385 15.0168 5.45385L15.1161 5.4634C15.1754 5.4634 15.1754 5.41374 15.1849 5.35452C15.2059 5.22462 15.3053 5.19596 15.4333 5.17495C15.5612 5.15394 15.5727 5.04696 15.5727 4.94763V2.87687C15.5727 2.59987 15.5517 2.33243 15.5517 2.05544C15.5517 1.72687 15.7007 1.62945 16.0083 1.62945C16.2757 1.62945 16.5527 1.64855 16.822 1.64855H17.1487C17.3569 1.64855 17.4161 1.48044 17.4161 1.30087C17.4161 0.983766 17.3856 0.657106 17.3856 0.557771C17.3856 0.380114 17.4945 0.339998 17.653 0.339998C17.7734 0.339998 18.3579 0.380116 18.547 0.389667C18.6524 0.381699 18.7579 0.40215 18.8527 0.448886C18.8855 0.468744 18.9232 0.479306 18.9616 0.479448C19.0074 0.476332 19.0519 0.4626 19.0915 0.439334C19.237 0.356574 19.3941 0.296048 19.5576 0.259766C19.6359 0.259766 19.7754 0.439332 19.9244 0.765992C19.9991 0.908352 20.0586 1.05818 20.102 1.213C20.102 1.32189 19.9244 1.40403 19.7448 1.49955C19.7066 1.51865 19.6665 1.55877 19.6665 1.58933C19.6665 1.6199 19.7352 1.639 19.7658 1.639C19.8842 1.639 19.9931 1.62945 20.1116 1.62945C20.3026 1.62945 20.3198 1.70777 20.3198 1.97521V2.55976C20.3198 2.84821 20.3007 2.90743 20.102 2.90743C19.7945 2.90743 19.4773 2.88833 19.1698 2.88833H18.8928C18.7151 2.88833 18.6846 3.00677 18.6846 3.15577C18.6846 3.24364 18.7056 3.80909 18.7839 3.80909C18.8622 3.80909 18.9329 3.56266 18.9749 3.41366C19.017 3.26466 19.0533 3.18442 19.166 3.18442C19.3773 3.25038 19.5804 3.3401 19.7715 3.45187C20.1383 3.6429 20.2873 3.72122 20.2873 3.83393C20.2873 3.91225 20.2071 3.93326 20.1383 3.95236C20.0294 3.98102 19.9798 4.14339 19.9473 4.25037C19.7661 4.67474 19.5542 5.08527 19.3131 5.47869C19.2571 5.55759 19.2228 5.64982 19.2137 5.74613C19.2137 5.86457 19.3035 6.08425 19.3933 6.08425C19.4831 6.08425 19.5213 5.70219 19.5308 5.56847C19.5404 5.43475 19.5614 5.37744 19.7008 5.37744C19.9131 5.38894 20.1198 5.44977 20.3045 5.5551C20.444 5.64488 20.4822 5.7041 20.4822 5.84355C20.4668 6.28745 20.3484 6.72169 20.1364 7.11199C20.058 7.27001 19.9363 7.40245 19.7854 7.49379C19.6345 7.58513 19.4607 7.63161 19.2844 7.62777C19.1405 7.6289 18.998 7.59952 18.8663 7.54157C18.7346 7.48362 18.6167 7.39841 18.5203 7.29155C18.4496 7.21132 18.3407 7.08333 18.2318 7.08333C18.1229 7.08333 17.9357 7.24189 17.8364 7.33931C17.7065 7.46921 17.3607 7.76722 17.1907 7.76722C16.9538 7.76722 16.3387 7.17121 16.3387 6.984C16.3387 6.89421 16.4075 6.8541 16.4782 6.81398C16.8463 6.57289 17.1853 6.29022 17.4887 5.97154C17.5652 5.9135 17.6292 5.8406 17.6768 5.75722C17.7244 5.67383 17.7546 5.58169 17.7657 5.48633C17.7596 5.37611 17.743 5.26672 17.7161 5.15967C17.6084 4.55275 17.5325 3.94062 17.4887 3.32579C17.4696 3.09655 17.4582 2.89979 17.2614 2.89979H17.0818C17.0507 2.89954 17.0197 2.90549 16.9909 2.9173C16.962 2.92912 16.9358 2.94656 16.9138 2.9686C16.8917 2.99065 16.8743 3.01687 16.8625 3.04572C16.8507 3.07457 16.8447 3.10549 16.845 3.13667V4.65344C16.845 4.76233 16.8545 4.83301 16.9538 4.83301C17.0113 4.82643 17.0677 4.81296 17.122 4.79289C17.1744 4.76752 17.2318 4.75384 17.2901 4.75278C17.4983 4.75278 17.5078 5.08899 17.5078 5.32586C17.5078 5.89895 17.4295 5.95053 17.2213 6.02885C16.772 6.19816 16.3118 6.33728 15.844 6.4453C15.7733 6.45485 15.7637 6.48541 15.7236 6.56564C15.7147 6.58957 15.6985 6.61005 15.6772 6.62413C15.6559 6.63821 15.6307 6.64516 15.6052 6.64396C15.5269 6.64396 15.4867 6.53508 15.4371 6.32686C15.4065 6.1874 15.3568 6.0002 15.3186 6.0002C15.2804 6.0002 15.269 6.11864 15.269 6.23707V6.45485C15.269 6.63441 15.2575 6.75285 15.0493 6.75285C14.8716 6.75285 14.694 6.7242 14.5144 6.7242C14.3062 6.7242 14.2183 6.79297 14.1973 7.00119L14.1725 7.36988ZM18.9902 1.639C19.0399 1.639 19.0896 1.61989 19.0896 1.55877C19.0896 1.49764 18.782 0.794648 18.7075 0.794648C18.633 0.794648 18.6483 0.903535 18.6483 0.985678V1.25694C18.6483 1.47662 18.6865 1.62372 18.9348 1.65428L18.9902 1.639Z" fill="#6EC3D8"/>
<path d="M25.0917 1.08308C25.1758 1.10409 25.3209 1.14612 25.3209 1.22826C25.3188 1.248 25.3108 1.26662 25.2978 1.28164C25.2848 1.29666 25.2676 1.30736 25.2483 1.31231C25.0821 1.40592 25.0573 1.532 25.0096 1.7918C24.7686 3.07512 24.6566 4.37934 24.6753 5.68497C24.6753 6.5064 24.6753 7.34884 25.5081 7.34884C25.8356 7.3339 26.1557 7.24688 26.4456 7.09399C26.7355 6.94111 26.9881 6.72612 27.1854 6.46437C27.527 6.02325 27.7553 5.50508 27.8502 4.95524C27.8922 4.74702 27.9247 4.55981 28.1004 4.55981C28.3296 4.55981 28.641 4.84062 28.8091 4.98772C28.9772 5.13481 29.3077 5.43472 29.3077 5.69452C29.3077 6.00781 29.0174 6.69361 28.8607 6.97442C28.194 8.20274 27.0173 9.01461 25.5922 9.01461C24.8529 9.01461 24.064 8.76437 23.5826 8.16072C23.063 7.49593 22.9999 6.39178 22.9999 5.55889C22.9999 4.36305 23.105 3.07551 23.191 1.95799C23.212 1.74022 23.2234 1.3849 23.2234 1.14612C23.2234 0.90733 23.2234 0.78125 23.3992 0.78125C23.6361 0.78125 24.7689 1.01049 25.0917 1.08308Z" fill="#6EC3D8"/>
<path d="M32.3069 1.69814C32.3584 1.50711 32.4119 1.30271 32.4425 1.1346C32.4731 0.943574 32.4845 0.844238 32.6202 0.844238C33.1442 1.0003 33.6584 1.18785 34.1599 1.40586C34.3681 1.49947 34.4311 1.56251 34.4311 1.61409C34.4311 1.66566 34.3986 1.67713 34.3585 1.69814C34.2656 1.73371 34.1825 1.7909 34.116 1.86498C34.0496 1.93905 34.0018 2.02789 33.9765 2.12413C33.5867 3.0618 33.3705 4.06249 33.3384 5.07745C33.3384 5.65054 33.3384 5.92944 33.4741 5.92944C33.5467 5.92944 33.5982 5.8473 33.6498 5.76324C33.7014 5.67919 33.7759 5.54547 33.8886 5.54547C34.0013 5.54547 34.4311 5.89887 34.4311 6.05552C34.4311 6.21216 33.9726 7.01067 33.9726 7.56465C33.9726 7.63724 33.9937 7.89704 34.0147 8.05368C34.0242 8.11672 34.0452 8.29247 34.0452 8.35551C34.0452 8.73757 33.2811 9.04322 32.9525 9.04322C32.7615 9.04322 32.6603 8.90759 32.4731 8.53317C31.963 7.50161 31.8083 6.33633 31.8083 5.19207C31.8121 4.00997 31.9799 2.83412 32.3069 1.69814ZM35.285 6.16249C35.7206 6.684 36.0644 6.85975 36.7407 6.85975C37.5126 6.85374 38.28 6.7419 39.0215 6.52736C39.1029 6.50303 39.187 6.48891 39.2718 6.48533C39.4055 6.48533 39.4628 6.62097 39.48 6.71457C39.5155 7.07451 39.5328 7.43602 39.5316 7.79771C39.5316 7.93334 39.5201 8.00593 39.3864 8.06706C39.0215 8.24471 37.2851 8.40136 36.8152 8.40136C35.1379 8.40136 34.3986 7.56847 34.3986 7.32777C34.3986 7.13674 34.9202 6.08035 35.1628 6.08035C35.2105 6.08035 35.2525 6.13193 35.285 6.16249ZM35.264 1.65611C35.3725 1.6618 35.4805 1.67585 35.5868 1.69814C36.0394 1.78765 36.4991 1.83624 36.9603 1.84332C37.4801 1.83654 37.9971 1.76662 38.5 1.6351C38.568 1.61687 38.6379 1.60661 38.7083 1.60454C38.8993 1.60454 38.97 1.82231 38.9891 1.9866C39.0263 2.2698 39.0473 2.55489 39.0521 2.84049C39.0521 3.08883 39.0215 3.16334 38.7503 3.20345C38.1714 3.28724 37.5873 3.32937 37.0024 3.32953C36.6891 3.32953 35.2525 3.27604 35.0558 3.10985C34.9717 3.03725 34.9717 2.72779 34.9717 2.61126C34.9717 1.82995 35.0138 1.65611 35.264 1.65611Z" fill="#6EC3D8"/>
<path d="M46.1947 0.615011C46.2883 0.657037 46.3609 0.708614 46.3609 0.781206C46.3609 0.853797 46.3189 0.865259 46.2673 0.886272C46.1011 0.958863 46.017 1.00089 45.8852 1.38486L45.6942 1.95795C45.6691 2.00992 45.6548 2.06647 45.6522 2.12414C45.6522 2.33236 45.7974 2.37439 46.1317 2.39541C46.38 2.41642 46.6302 2.42597 46.8805 2.42597C47.0715 2.42597 47.2033 2.42597 47.2033 2.65521C47.1819 2.96846 47.1294 3.27881 47.0467 3.5817C46.9741 3.85296 46.9225 3.94656 46.7659 3.94656C46.3332 3.9264 45.902 3.88111 45.4745 3.81093C45.4483 3.80114 45.4203 3.79723 45.3924 3.79947C45.1517 3.79947 45.1116 3.9905 45.0695 4.1949L45.0485 4.27895C45.0359 4.3335 45.0289 4.38918 45.0275 4.44515C45.0275 4.71641 45.3083 4.72596 46.0572 4.72596C46.3399 4.72596 46.5061 4.73742 46.5061 4.91699C46.489 5.25726 46.4247 5.5935 46.315 5.91607C46.2405 6.13576 46.168 6.25037 45.9196 6.25037C45.6298 6.23369 45.341 6.20244 45.0543 6.15677C45.0313 6.14738 45.0064 6.14346 44.9817 6.14531C44.7639 6.14531 44.7429 6.35353 44.7429 6.47961V6.54074C44.7348 6.77529 44.7846 7.00822 44.8881 7.21889C45.0543 7.55129 45.5242 7.68692 45.8776 7.68692C46.2666 7.69376 46.6516 7.60798 47.0008 7.43667C47.1113 7.36347 47.2004 7.26235 47.2591 7.14358C47.3178 7.02481 47.344 6.89261 47.3351 6.76042C47.303 6.25869 47.1975 5.7644 47.0219 5.29332C46.9911 5.2166 46.9737 5.1352 46.9703 5.05262C46.9703 4.91699 47.0429 4.86159 47.3523 4.74124C47.6339 4.63263 47.9277 4.55885 48.2272 4.52156C48.4183 4.52156 48.466 4.71259 48.5711 5.04307C48.7748 5.64042 48.8868 6.26516 48.9035 6.89605C48.9215 7.24815 48.8451 7.59866 48.6822 7.91133C48.5193 8.224 48.2758 8.48748 47.977 8.67453C47.3346 9.05378 46.5986 9.24506 45.8528 9.22661C44.0628 9.22661 43.1363 8.1855 43.1363 6.42612C43.1363 6.30195 43.1688 5.99057 43.1688 5.96956C43.1688 5.74033 43.0007 5.68875 42.8555 5.63526C42.1678 5.39647 42.0341 5.31242 42.0341 5.12521C42.0576 4.88517 42.1062 4.64826 42.1793 4.4184C42.2519 4.14714 42.3245 3.84532 42.5613 3.84532C42.672 3.85713 42.7769 3.90094 42.8631 3.9714C42.9955 4.06865 43.1484 4.13403 43.3102 4.16243C43.3942 4.16243 43.5012 4.1204 43.5509 3.90071C43.5823 3.79161 43.6065 3.68058 43.6234 3.56832C43.6234 3.3773 43.4993 3.29706 43.3426 3.23593C42.4887 2.92264 42.4467 2.80803 42.4467 2.66284C42.4467 2.44316 42.697 1.3925 42.9988 1.3925C43.1407 1.42146 43.2725 1.48735 43.3808 1.58353C43.5502 1.70113 43.7363 1.79257 43.9329 1.85479C44.0991 1.85479 44.1507 1.72871 44.1927 1.57207C44.2768 1.2817 44.4315 0.760193 44.5366 0.355211C44.5786 0.189016 44.5881 0.125977 44.6817 0.125977C45.1948 0.260644 45.6999 0.42391 46.1947 0.615011Z" fill="#6EC3D8"/>
<path d="M57.5934 5.39262C57.5934 6.72982 56.6574 7.58946 55.4921 8.04602C55.11 8.20266 54.2428 8.47392 53.8473 8.47392C53.6563 8.47392 53.5665 8.34975 53.4844 8.19311C53.3521 7.93169 53.2637 7.65031 53.2227 7.36022C53.2227 7.19403 53.3908 7.14054 53.62 7.12143C54.5752 7.02592 56.2104 6.59038 56.2104 5.38307C56.2104 4.81953 55.7729 4.55973 55.2552 4.55973C54.3287 4.55973 53.0698 5.09079 52.279 5.57028C52.1647 5.64581 52.0334 5.69175 51.8969 5.704C51.5435 5.704 51.0335 4.85201 51.0335 4.51771C51.0335 4.34196 51.1595 4.30949 51.4709 4.22734C51.662 4.17577 52.023 4.03631 52.235 3.96754C53.1195 3.65426 54.2962 3.2168 55.2323 3.2168C56.5523 3.2168 57.5934 3.99811 57.5934 5.39262Z" fill="#6EC3D8"/>
<path d="M61.6547 0.666617C61.9337 0.623198 62.215 0.595771 62.4971 0.584473C62.778 0.584473 62.799 0.605486 62.8792 1.38489C62.9055 1.80914 62.9649 2.23069 63.0569 2.64568C63.0874 2.76985 63.139 2.91503 63.2956 2.91503C63.4867 2.91503 64.4208 2.36296 64.65 2.22923C64.8048 2.13563 65.3358 1.81279 65.4715 1.81279C65.6071 1.81279 65.8039 2.13563 65.9509 2.37442C66.0656 2.56545 66.3769 3.07167 66.3769 3.26843C66.3769 3.38305 66.2623 3.42508 66.0446 3.49767C66.0025 3.51868 65.9509 3.53014 65.8975 3.55116C64.7513 3.98565 63.6529 4.5368 62.6194 5.19592C62.1189 5.5073 61.4025 5.97532 61.4025 6.51593C61.4025 7.2151 62.7226 7.2151 63.202 7.2151C63.7305 7.21941 64.2587 7.19134 64.7838 7.13105C65.0034 7.10048 65.7217 6.98586 65.8879 6.94002C65.9185 6.94002 65.9605 6.93047 65.9911 6.93047C66.0961 6.93047 66.1267 7.10812 66.1382 7.19027C66.1687 7.49209 66.1802 7.83594 66.1802 8.14541C66.1802 8.45488 66.1687 8.55231 65.8975 8.6249C65.4199 8.74907 63.6185 8.80064 63.0454 8.80064C62.224 8.80064 61.5057 8.74907 60.7779 8.33262C60.4617 8.15526 60.1985 7.89678 60.0155 7.58382C59.8325 7.27087 59.7363 6.91476 59.7368 6.55223C59.7368 5.52258 60.4761 4.65913 61.2975 4.12807C61.4541 4.03446 61.5477 3.98288 61.5477 3.80523C61.5388 3.71923 61.5175 3.63496 61.4847 3.55498C61.4025 3.27417 61.328 2.98189 61.2555 2.68006C61.139 2.14199 60.993 1.61075 60.818 1.08879C60.8033 1.04798 60.7931 1.00571 60.7874 0.962713C60.7798 0.823261 60.904 0.760221 61.6547 0.666617Z" fill="#6EC3D8"/>
<path d="M72.8815 1.53947C72.8815 1.68847 73.0018 1.69803 73.1508 1.69803H74.3696C74.7173 1.69803 75.063 1.67701 75.4107 1.67701C75.7584 1.67701 75.9456 1.78781 75.9456 2.16414C75.9456 2.50035 75.915 2.83847 75.915 3.17468V7.874C75.915 8.25606 75.9456 8.64767 75.9456 9.0431C75.9456 9.28189 75.8463 9.31054 75.4986 9.31054H74.7861C74.4976 9.31054 74.3887 9.28189 74.3887 9.03355V8.93422C74.3872 8.8621 74.3572 8.7935 74.3053 8.7434C74.2534 8.69329 74.1838 8.66575 74.1117 8.66678H70.9788C70.9067 8.66575 70.8371 8.69329 70.7852 8.7434C70.7333 8.7935 70.7034 8.8621 70.7018 8.93422V9.0431C70.7018 9.29144 70.5834 9.31054 70.2854 9.31054H69.6111C69.2443 9.31054 69.145 9.28189 69.145 9.0431C69.145 8.64767 69.1755 8.25988 69.1755 7.874V3.16704C69.1755 2.83083 69.1545 2.49271 69.1545 2.1565C69.1545 1.77444 69.3226 1.66937 69.6798 1.66937C70.0371 1.66937 70.3752 1.69039 70.7209 1.69039H70.8394C70.9565 1.69574 71.0722 1.66286 71.1691 1.5967C71.2659 1.53054 71.3386 1.43469 71.3762 1.32361C71.4921 1.03874 71.591 0.747221 71.6723 0.450605C71.7124 0.322615 71.7525 0.272949 71.8518 0.272949C71.9512 0.272949 73.0209 0.490721 73.2196 0.540389C73.4183 0.590057 73.4871 0.599609 73.4871 0.708496C73.4871 0.817382 73.4278 0.847947 73.3285 0.86705C73.2292 0.886153 73.1795 0.897614 73.1375 0.996949C73.1375 1.01605 73.1088 1.04662 73.0878 1.08482C73.0045 1.22934 72.9354 1.38161 72.8815 1.53947ZM70.6713 3.42302C70.6699 3.45466 70.6752 3.48623 70.6867 3.51572C70.6982 3.54521 70.7158 3.57196 70.7383 3.59426C70.7608 3.61656 70.7877 3.63392 70.8173 3.64522C70.8468 3.65652 70.8784 3.66152 70.9101 3.6599H74.1805C74.2119 3.66067 74.2431 3.65509 74.2723 3.64349C74.3015 3.63188 74.3281 3.6145 74.3504 3.59237C74.3727 3.57024 74.3903 3.54383 74.4021 3.51473C74.414 3.48563 74.4198 3.45443 74.4193 3.42302V3.27402C74.4198 3.24252 74.414 3.21123 74.4022 3.18203C74.3903 3.15283 74.3728 3.1263 74.3505 3.10402C74.3282 3.08174 74.3017 3.06417 74.2725 3.05236C74.2433 3.04054 74.212 3.03471 74.1805 3.03523H70.9101C70.8786 3.03471 70.8473 3.04054 70.8181 3.05236C70.7889 3.06417 70.7623 3.08174 70.7401 3.10402C70.7178 3.1263 70.7002 3.15283 70.6884 3.18203C70.6766 3.21123 70.6708 3.24252 70.6713 3.27402V3.42302ZM70.6713 5.24735C70.6732 5.32053 70.7033 5.39014 70.7552 5.44172C70.8072 5.49331 70.877 5.52289 70.9502 5.52434H74.1423C74.2153 5.52288 74.2849 5.49322 74.3365 5.44159C74.3882 5.38996 74.4178 5.32035 74.4193 5.24735V5.11745C74.4193 5.04399 74.3901 4.97353 74.3381 4.92159C74.2862 4.86964 74.2157 4.84046 74.1423 4.84046H70.9502C70.9132 4.83856 70.8763 4.84441 70.8417 4.85763C70.8071 4.87085 70.7757 4.89115 70.7494 4.91723C70.7232 4.94332 70.7027 4.9746 70.6892 5.00908C70.6757 5.04356 70.6696 5.08048 70.6713 5.11745V5.24735ZM70.6713 7.10033C70.6732 7.17351 70.7033 7.24312 70.7552 7.29471C70.8072 7.34629 70.877 7.37588 70.9502 7.37733H74.1423C74.2153 7.37586 74.2849 7.34621 74.3365 7.29458C74.3882 7.24294 74.4178 7.17334 74.4193 7.10033V6.97234C74.4178 6.89916 74.3882 6.82934 74.3366 6.7774C74.2851 6.72546 74.2155 6.69539 74.1423 6.69344H70.9502C70.913 6.69152 70.8759 6.69742 70.8412 6.71075C70.8065 6.72409 70.775 6.74457 70.7487 6.77086C70.7224 6.79715 70.7019 6.82867 70.6886 6.86338C70.6753 6.89809 70.6694 6.93521 70.6713 6.97234V7.10033Z" fill="#6EC3D8"/>
<path d="M81.4186 2.23336C81.4538 2.23361 81.4887 2.22686 81.5212 2.21351C81.5538 2.20016 81.5834 2.18047 81.6083 2.15559C81.6331 2.13071 81.6528 2.10112 81.6662 2.06856C81.6795 2.036 81.6863 2.00111 81.686 1.96592V1.22281C81.6906 1.02394 81.6842 0.824971 81.6669 0.626799C81.6574 0.558028 81.6478 0.43577 81.6478 0.409026C81.6478 0.290588 81.7472 0.271484 81.8389 0.271484C81.9688 0.271484 82.731 0.340256 82.8914 0.349807C83.1589 0.36891 83.3461 0.389924 83.3461 0.517914C83.3461 0.588595 83.2964 0.617249 83.2372 0.676468C83.2048 0.710645 83.1801 0.751307 83.1646 0.795766C83.1491 0.840224 83.1432 0.887464 83.1474 0.934356V1.94681C83.1459 2.01685 83.1705 2.08495 83.2164 2.13789C83.2623 2.19083 83.3262 2.22485 83.3957 2.23336H84.8629C85.201 2.23336 85.5372 2.21425 85.8638 2.21425C86.1905 2.21425 86.3701 2.33269 86.3701 2.68992C86.3701 3.00702 86.351 3.31458 86.351 3.63169V7.78467C86.351 8.16673 86.3796 8.54879 86.3796 8.93085C86.3796 9.16963 86.2516 9.19829 86.0625 9.19829H85.2984C84.903 9.19829 84.8437 9.16963 84.8437 8.92129C84.8453 8.85821 84.8223 8.79701 84.7795 8.75064C84.7367 8.70428 84.6775 8.67641 84.6145 8.67295H80.2208C80.0298 8.67295 79.984 8.85252 79.984 9.01108C79.984 9.2021 79.7547 9.2021 79.6019 9.2021H78.8378C78.599 9.2021 78.471 9.17345 78.471 8.92511C78.471 8.54306 78.4997 8.161 78.4997 7.77894V3.63169C78.4997 3.31458 78.4806 3.00702 78.4806 2.68992C78.4806 2.33269 78.6391 2.21425 78.9753 2.21425C79.3115 2.21425 79.6497 2.23336 79.9782 2.23336H81.4186ZM81.686 3.85901C81.6863 3.82257 81.6793 3.78644 81.6655 3.75271C81.6516 3.71899 81.6312 3.68836 81.6055 3.66259C81.5797 3.63681 81.5491 3.61642 81.5153 3.60259C81.4816 3.58876 81.4455 3.58177 81.409 3.58202H80.2189C80.1459 3.58349 80.0763 3.61314 80.0247 3.66477C79.9731 3.7164 79.9434 3.78601 79.9419 3.85901V4.49323C79.9434 4.56642 79.973 4.63624 80.0246 4.68818C80.0761 4.74012 80.1458 4.77018 80.2189 4.77213H81.409C81.4458 4.77293 81.4823 4.76624 81.5164 4.75248C81.5505 4.73872 81.5814 4.71817 81.6073 4.69209C81.6332 4.666 81.6536 4.63493 81.6671 4.60074C81.6806 4.56656 81.6871 4.52998 81.686 4.49323V3.85901ZM81.686 6.3424C81.6863 6.30586 81.6793 6.26964 81.6655 6.23581C81.6517 6.20198 81.6313 6.17122 81.6056 6.1453C81.5798 6.11937 81.5492 6.0988 81.5155 6.08476C81.4817 6.07072 81.4456 6.06349 81.409 6.06349H80.2189C80.1458 6.06544 80.0761 6.09551 80.0246 6.14745C79.973 6.19939 79.9434 6.26921 79.9419 6.3424V7.04538C79.9434 7.11839 79.9731 7.18799 80.0247 7.23963C80.0763 7.29126 80.1459 7.32091 80.2189 7.32238H81.409C81.4458 7.324 81.4826 7.31795 81.5169 7.30461C81.5513 7.29126 81.5825 7.27092 81.6085 7.24486C81.6346 7.21881 81.6549 7.18762 81.6683 7.15328C81.6816 7.11894 81.6877 7.08219 81.686 7.04538V6.3424ZM83.1531 4.4875C83.1524 4.52434 83.159 4.56096 83.1728 4.59515C83.1865 4.62934 83.207 4.6604 83.2331 4.68645C83.2591 4.71251 83.2902 4.73303 83.3244 4.74677C83.3586 4.76051 83.3952 4.76718 83.432 4.7664H84.5916C84.6281 4.7664 84.6643 4.75918 84.698 4.74514C84.7318 4.7311 84.7624 4.71052 84.7881 4.6846C84.8139 4.65868 84.8342 4.62791 84.848 4.59409C84.8619 4.56026 84.8688 4.52404 84.8686 4.4875V3.85328C84.8688 3.81684 84.8618 3.7807 84.848 3.74698C84.8342 3.71326 84.8138 3.68263 84.788 3.65686C84.7622 3.63108 84.7316 3.61069 84.6979 3.59686C84.6642 3.58303 84.628 3.57604 84.5916 3.57629H83.432C83.3955 3.57604 83.3593 3.58302 83.3255 3.59683C83.2916 3.61063 83.2609 3.631 83.2349 3.65674C83.209 3.68249 83.1884 3.71311 83.1744 3.74684C83.1604 3.78057 83.1531 3.81675 83.1531 3.85328V4.4875ZM83.1531 7.04538C83.1531 7.08192 83.1604 7.1181 83.1744 7.15183C83.1884 7.18556 83.209 7.21618 83.2349 7.24193C83.2609 7.26767 83.2916 7.28803 83.3255 7.30184C83.3593 7.31565 83.3955 7.32263 83.432 7.32238H84.5916C84.628 7.32263 84.6642 7.31564 84.6979 7.30181C84.7316 7.28798 84.7622 7.26758 84.788 7.24181C84.8138 7.21604 84.8342 7.18541 84.848 7.15168C84.8618 7.11796 84.8688 7.08183 84.8686 7.04538V6.3424C84.8688 6.30586 84.8619 6.26964 84.848 6.23581C84.8342 6.20198 84.8139 6.17122 84.7881 6.1453C84.7624 6.11937 84.7318 6.0988 84.698 6.08476C84.6643 6.07072 84.6281 6.06349 84.5916 6.06349H83.432C83.395 6.06187 83.358 6.06797 83.3234 6.08141C83.2888 6.09485 83.2574 6.11534 83.2312 6.14157C83.205 6.1678 83.1845 6.1992 83.1711 6.23377C83.1576 6.26835 83.1515 6.30534 83.1531 6.3424V7.04538Z" fill="#6EC3D8"/>
<path d="M92.7428 0.492642C92.9338 0.576695 93.0656 0.649286 93.0656 0.74289C93.0656 0.836495 92.951 0.857509 92.8746 0.878522C92.7351 0.970811 92.635 1.1118 92.5938 1.27395C92.5938 1.35609 92.6454 1.38857 92.718 1.38857C93.0059 1.33828 93.2885 1.26155 93.5623 1.15934C93.6542 1.11868 93.7525 1.09412 93.8527 1.08674C94.0819 1.08674 94.1335 1.30452 94.1755 1.49172C94.2435 1.76868 94.2857 2.05134 94.3016 2.33607C94.3016 2.49081 94.208 2.5271 93.6349 2.6379C93.0618 2.7487 92.355 2.86523 91.7093 2.93973C91.375 2.97984 91.3559 3.20908 91.3559 3.22054C91.3559 3.27212 91.4075 3.29313 91.4495 3.29313C91.4822 3.28719 91.5138 3.27623 91.5431 3.26066C91.8268 3.15844 92.1261 3.10609 92.4276 3.10592C92.6873 3.09676 92.945 3.15396 93.1764 3.27212C93.4138 3.39801 93.5932 3.61093 93.6769 3.86622C93.6904 3.90218 93.7143 3.93326 93.7457 3.9554C93.777 3.97755 93.8143 3.98974 93.8527 3.99039C93.9578 3.99039 94.5098 3.6771 94.8212 3.50135C94.9148 3.44978 94.9874 3.40775 95.0294 3.38674C95.0707 3.36054 95.1168 3.343 95.1651 3.33516C95.4249 3.33516 95.7897 4.531 95.7897 4.7717C95.7897 4.90542 95.6847 4.93789 95.4764 5.01048C94.9778 5.20151 94.6646 5.33332 94.187 5.53008C93.9367 5.63515 93.8947 5.72112 93.8947 6.00957C93.8947 6.13374 93.9062 6.39163 93.9062 6.61322C93.9062 7.27991 93.8947 7.28947 93.3121 7.28947C92.5938 7.28947 92.376 7.2589 92.376 6.93606C92.3776 6.84219 92.384 6.74847 92.3951 6.65525V6.60558C92.3972 6.58766 92.3957 6.56949 92.3905 6.55221C92.3853 6.53492 92.3766 6.51889 92.3649 6.5051C92.3533 6.49131 92.339 6.48006 92.3228 6.47204C92.3066 6.46402 92.289 6.45941 92.271 6.45849C92.1678 6.45849 91.6463 6.79279 91.6463 7.15575C91.6463 7.67726 92.5308 7.67725 92.8956 7.67725C93.5489 7.66285 94.1986 7.57572 94.8327 7.41745C94.9179 7.39756 95.005 7.38668 95.0925 7.38498C95.3408 7.38498 95.3523 7.76704 95.3523 8.42609C95.3523 8.82152 95.3312 8.92659 95.0294 8.98772C94.3602 9.07763 93.6854 9.11976 93.0102 9.1138C92.2824 9.1138 91.8029 9.06222 91.1878 8.7795C90.8676 8.65122 90.5943 8.42794 90.4047 8.1397C90.2152 7.85145 90.1185 7.51207 90.1276 7.16721C90.1276 6.18914 90.865 5.6256 91.6253 5.17859C91.8029 5.07544 92.0073 4.96082 92.1984 4.86721C92.292 4.82519 92.376 4.77361 92.376 4.65899C92.3729 4.61988 92.362 4.58178 92.3441 4.54691C92.3261 4.51203 92.3014 4.48107 92.2713 4.45583C92.2413 4.43059 92.2066 4.41158 92.1691 4.39989C92.1316 4.38819 92.0922 4.38406 92.0532 4.38773C91.6577 4.38773 90.9395 4.7526 90.6262 4.99138C90.1372 5.37344 89.8258 5.92742 89.524 6.46995C89.5122 6.50246 89.491 6.53074 89.4631 6.55116C89.4352 6.57157 89.4019 6.58321 89.3673 6.58457C89.1381 6.58457 88.076 6.01148 88.076 5.75168C88.076 5.66763 88.139 5.60459 88.267 5.47087C88.6949 4.98183 89.3711 3.8987 89.7035 3.43067C89.741 3.39044 89.7633 3.33844 89.7666 3.28358C89.7658 3.26376 89.7612 3.24428 89.7529 3.22625C89.7446 3.20822 89.7329 3.192 89.7183 3.17851C89.7038 3.16503 89.6867 3.15455 89.6681 3.14766C89.6495 3.14078 89.6297 3.13763 89.6099 3.1384C89.4857 3.1384 89.3406 3.14986 89.2049 3.14986C88.8496 3.14986 88.8229 3.11739 88.8229 2.33799C88.8229 1.69231 88.8649 1.68084 89.2049 1.68084C89.4342 1.68084 89.8086 1.70186 90.1601 1.70186C90.6701 1.70186 90.7637 1.65983 90.8478 1.51083C91.0679 1.10424 91.2324 0.669898 91.3368 0.219472C91.3674 0.0647381 91.3884 -0.00976562 91.4916 -0.00976562C91.9172 0.135546 92.3349 0.30325 92.7428 0.492642Z" fill="#6EC3D8"/>
<path d="M100 7.52633C99.9993 7.80551 99.9159 8.07821 99.7603 8.31005C99.6048 8.54189 99.3841 8.72248 99.126 8.82906C98.868 8.93563 98.5842 8.96341 98.3104 8.9089C98.0366 8.85439 97.785 8.72002 97.5875 8.52274C97.3899 8.32547 97.2552 8.07412 97.2004 7.80038C97.1455 7.52665 97.1729 7.2428 97.2791 6.98462C97.3853 6.72644 97.5656 6.50549 97.7973 6.34964C98.0289 6.19379 98.3015 6.11002 98.5807 6.10889C98.767 6.10864 98.9515 6.14512 99.1237 6.21624C99.2959 6.28736 99.4524 6.39173 99.5842 6.52337C99.716 6.65502 99.8206 6.81136 99.8919 6.98346C99.9633 7.15555 100 7.34003 100 7.52633ZM97.7497 7.52633C97.7485 7.69275 97.797 7.85575 97.8888 7.99458C97.9806 8.1334 98.1116 8.24177 98.2652 8.30589C98.4187 8.37002 98.5879 8.387 98.7512 8.35467C98.9145 8.32233 99.0644 8.24215 99.182 8.12433C99.2995 8.00651 99.3793 7.85638 99.4113 7.69305C99.4433 7.52972 99.4259 7.36057 99.3614 7.20713C99.2969 7.0537 99.1883 6.92292 99.0492 6.83144C98.9102 6.73997 98.7471 6.69193 98.5807 6.69344C98.3591 6.69293 98.1463 6.78033 97.9891 6.93648C97.8319 7.09262 97.743 7.30475 97.742 7.52633H97.7497Z" fill="#6EC3D8"/>
<path d="M5.74043 31.7413C4.72783 31.7363 3.7225 31.57 2.76228 31.2485C1.74792 30.9161 0.164284 29.8769 0.164284 29.8769C0.0834742 29.8235 0.0270718 29.7403 0.00738765 29.6454C-0.0122965 29.5506 0.00633524 29.4518 0.059217 29.3706L1.32192 27.4279C1.37699 27.3487 1.45997 27.2932 1.55423 27.2727C1.64848 27.2521 1.74702 27.268 1.83006 27.3171C2.44458 27.712 3.08978 28.0569 3.75946 28.3486C4.42455 28.607 5.13017 28.7454 5.84358 28.7574C6.40521 28.7574 6.81974 28.6638 7.08336 28.4766C7.22651 28.3872 7.336 28.2528 7.39474 28.0946C7.4425 27.9035 7.4807 27.7278 7.4807 27.7125C7.4807 27.6972 7.44823 27.5215 7.40811 27.3304C7.40811 27.3304 7.40811 27.3056 7.24956 27.1528C7.06767 26.982 6.85506 26.8471 6.62298 26.7554C6.32613 26.6338 6.02327 26.5273 5.71559 26.4364C5.37301 26.3345 5.01515 26.2238 4.64201 26.104C4.15141 25.9638 3.66869 25.7974 3.19592 25.6054C2.72141 25.4181 2.27772 25.1605 1.87973 24.8413C1.48591 24.5222 1.16097 24.1264 0.924579 23.678C0.676241 23.2176 0.590278 22.3541 0.590278 22.3541C0.569265 22.1536 0.553985 21.9721 0.553985 21.9721C0.553985 21.9721 0.569265 21.781 0.590278 21.59C0.590278 21.59 0.685794 20.6349 0.949414 20.1C1.20649 19.5722 1.57314 19.1052 2.02491 18.7303C2.49192 18.3476 3.03017 18.0612 3.60854 17.8879C4.24331 17.6958 4.90341 17.6005 5.56659 17.6051C6.46489 17.61 7.35714 17.7524 8.21235 18.0273C8.95397 18.2977 9.67265 18.6274 10.3614 19.013C10.4458 19.0608 10.508 19.14 10.5345 19.2333C10.5609 19.3266 10.5496 19.4266 10.5028 19.5116L9.37381 21.5575C9.32487 21.6413 9.24592 21.7032 9.15299 21.7309C9.06005 21.7586 8.96006 21.7499 8.87331 21.7065C8.32983 21.4229 7.7719 21.1678 7.2018 20.9424C6.65214 20.7319 6.07089 20.6156 5.48254 20.5986C5.10532 20.571 4.72917 20.6647 4.40895 20.866C4.2859 20.9419 4.19022 21.0549 4.13578 21.1889C4.08994 21.3799 4.05173 21.5556 4.05173 21.5709C4.05173 21.5862 4.08611 21.7619 4.12814 21.953L4.28097 22.0982C4.46536 22.2632 4.67252 22.4009 4.89608 22.507C5.18173 22.6485 5.47583 22.7722 5.77672 22.8776C6.10912 22.9973 6.46316 23.1163 6.83885 23.2348C7.31642 23.3901 7.80227 23.5735 8.2964 23.7849C8.77365 23.9865 9.22305 24.2484 9.63361 24.5643C10.0266 24.8738 10.3567 25.2558 10.6059 25.6895C10.86 26.1346 10.9498 26.9388 10.9498 26.9388C10.9708 27.1299 10.988 27.3209 10.988 27.3209C10.988 27.3209 10.9746 27.5119 10.9555 27.703C10.9555 27.703 10.8562 28.767 10.5926 29.321C10.3389 29.8607 9.95726 30.3302 9.48078 30.6887C8.97763 31.0598 8.40937 31.3332 7.80545 31.4949C7.13168 31.6714 6.43682 31.7543 5.74043 31.7413Z" fill="#6EC3D8"/>
<path d="M14.5889 18.1457C14.5889 18.0487 14.6273 17.9557 14.6957 17.887C14.764 17.8183 14.8568 17.7794 14.9538 17.7789H18.1096C18.2067 17.7794 18.2997 17.8182 18.3684 17.8869C18.437 17.9555 18.4758 18.0485 18.4763 18.1457V19.374C18.4763 19.5746 18.5795 19.6109 18.7056 19.4561C18.7056 19.4561 18.9406 19.1677 19.2042 18.9021C19.471 18.6337 19.767 18.396 20.0867 18.1934C20.425 17.9815 20.7907 17.817 21.1737 17.7044C22.406 17.3678 23.7197 17.504 24.8567 18.0864C25.512 18.4685 26.1691 19.4103 26.1691 19.4103C26.1934 19.4485 26.2261 19.4806 26.2648 19.5041C26.3035 19.5276 26.3471 19.5418 26.3922 19.5457C26.4373 19.5496 26.4827 19.543 26.5249 19.5265C26.567 19.5099 26.6048 19.4839 26.6352 19.4504C26.6352 19.4504 27.6381 18.4437 28.3717 18.075C29.1514 17.6945 30.0105 17.5046 30.878 17.521C32.326 17.521 33.4594 17.947 34.2783 18.799C35.0978 19.651 35.455 22.1955 35.455 22.1955C35.4865 22.4369 35.5038 22.6799 35.5066 22.9233V31.1165C35.5061 31.2135 35.4672 31.3063 35.3985 31.3747C35.3298 31.443 35.2368 31.4814 35.1398 31.4814H31.984C31.8874 31.4809 31.7949 31.4423 31.7266 31.374C31.6583 31.3057 31.6197 31.2132 31.6192 31.1165V24.2204C31.6169 23.9772 31.6022 23.7343 31.5752 23.4926C31.5752 23.4926 31.4224 22.2432 31.0308 21.7733C30.6392 21.3034 30.0757 21.0703 29.344 21.0703C29.0235 21.0548 28.7034 21.1097 28.4064 21.2312C28.1094 21.3526 27.8426 21.5377 27.6247 21.7733C27.2064 22.2394 27.0517 23.4926 27.0517 23.4926C27.0224 23.7341 27.0065 23.9771 27.0039 24.2204V31.1165C27.0034 31.2132 26.9648 31.3057 26.8965 31.374C26.8282 31.4423 26.7356 31.4809 26.639 31.4814H23.4699C23.3729 31.4814 23.2799 31.443 23.2112 31.3747C23.1425 31.3063 23.1036 31.2135 23.1031 31.1165V24.2204C23.1008 23.9772 23.0861 23.7343 23.0591 23.4926C23.0591 23.4926 22.9082 22.2432 22.5166 21.7733C22.125 21.3034 21.5615 21.0703 20.8279 21.0703C20.5073 21.0544 20.1872 21.1091 19.8901 21.2306C19.593 21.3521 19.3262 21.5374 19.1087 21.7733C18.6903 22.2394 18.5356 23.4926 18.5356 23.4926C18.5079 23.7342 18.4926 23.9772 18.4897 24.2204V31.1165C18.4892 31.2135 18.4504 31.3063 18.3816 31.3747C18.3129 31.443 18.2199 31.4814 18.1229 31.4814H14.9538C14.8572 31.4809 14.7646 31.4423 14.6963 31.374C14.628 31.3057 14.5894 31.2132 14.5889 31.1165V18.1457Z" fill="#6EC3D8"/>
<path d="M46.3666 31.7929C45.3596 31.8025 44.3603 31.6156 43.4248 31.2427C42.5539 30.8978 41.7589 30.3858 41.0847 29.7355C40.4278 29.0933 39.9028 28.3289 39.5392 27.4852C39.1572 26.6237 39.012 25.0744 39.012 25.0744C38.9929 24.8738 38.9757 24.6924 38.9757 24.6924C38.9757 24.6924 38.9929 24.5013 39.012 24.3103C39.012 24.3103 39.1629 22.761 39.5392 21.8995C39.9057 21.0502 40.4353 20.2811 41.098 19.6358C41.7782 18.9814 42.577 18.4627 43.4515 18.1076C45.3492 17.3626 47.4576 17.3586 49.3581 18.0961C50.2294 18.4341 51.0262 18.939 51.704 19.5823C52.3609 20.225 52.8864 20.9893 53.2513 21.8326C53.6334 22.6942 53.7767 24.2434 53.7767 24.2434C53.7977 24.444 53.813 24.6255 53.813 24.6255C53.813 24.6255 53.7977 24.8165 53.7767 25.0075C53.7767 25.0075 53.6257 26.5568 53.2513 27.4183C52.8833 28.2673 52.3532 29.0362 51.6906 29.682C51.0117 30.3371 50.2134 30.8559 49.339 31.2103C48.3967 31.5998 47.3863 31.7979 46.3666 31.7929ZM46.4182 28.4442C46.932 28.4531 47.4418 28.3528 47.914 28.15C48.3367 27.9617 48.7154 27.6871 49.0258 27.3438C49.3359 26.9978 49.5748 26.594 49.7287 26.1556C49.839 25.804 49.9107 25.4415 49.9427 25.0744C49.958 24.8738 49.9713 24.6924 49.9713 24.6924C49.9713 24.6924 49.958 24.5013 49.9408 24.3103C49.9074 23.9424 49.8318 23.5796 49.7154 23.2291C49.3792 22.3277 48.699 21.5966 47.8242 21.1965C47.3666 20.9887 46.8691 20.8837 46.3666 20.889C45.8528 20.8796 45.3429 20.9799 44.8709 21.1831C44.4473 21.3709 44.0678 21.6455 43.7572 21.9893C43.4477 22.3358 43.2089 22.7394 43.0542 23.1775C42.9442 23.5291 42.873 23.8916 42.8421 24.2587C42.8249 24.4593 42.8116 24.6408 42.8116 24.6408C42.8116 24.6408 42.8249 24.8318 42.8421 25.0228C42.8765 25.3905 42.9522 25.7532 43.0676 26.1041C43.404 27.0014 44.0789 27.7312 44.9473 28.1366C45.4086 28.3472 45.9111 28.4522 46.4182 28.4442Z" fill="#6EC3D8"/>
<path d="M64.0426 31.793C63.0365 31.8042 62.0379 31.6193 61.1026 31.2485C60.2347 30.9008 59.443 30.3869 58.7721 29.7356C58.1152 29.0929 57.5897 28.3286 57.2247 27.4853C56.8427 26.6237 56.6975 25.0745 56.6975 25.0745C56.6784 24.8739 56.6631 24.6924 56.6631 24.6924C56.6631 24.6924 56.6784 24.5014 56.6975 24.3104C56.6975 24.3104 56.8503 22.7611 57.2247 21.8996C57.587 21.0463 58.1127 20.2721 58.7721 19.6206C59.4515 18.9662 60.2497 18.4475 61.1236 18.0924C62.0656 17.7106 63.074 17.5197 64.0903 17.5307C65.0974 17.5215 66.0965 17.7083 67.0322 18.0809C67.9031 18.4258 68.698 18.9378 69.3723 19.5881C70.0292 20.2303 70.5542 20.9948 70.9177 21.8384C71.2998 22.7 71.445 24.2492 71.445 24.2492C71.4641 24.4498 71.4813 24.6313 71.4813 24.6313C71.4813 24.6313 71.4641 24.8223 71.445 25.0133C71.445 25.0133 71.294 26.5626 70.9177 27.4241C70.5512 28.2734 70.0216 29.0425 69.3589 29.6878C68.6792 30.3429 67.8803 30.8617 67.0054 31.2161C66.0658 31.6027 65.0587 31.7988 64.0426 31.793ZM64.0941 28.4442C64.608 28.4536 65.1179 28.3533 65.5899 28.15C66.0135 27.9623 66.3929 27.6877 66.7036 27.3439C67.013 26.9974 67.2518 26.5937 67.4066 26.1557C67.5156 25.8039 67.5867 25.4414 67.6186 25.0745C67.6358 24.8739 67.6492 24.6924 67.6492 24.6924C67.6492 24.6924 67.6358 24.5014 67.6167 24.3104C67.5834 23.9426 67.5084 23.5799 67.3932 23.2291C67.0566 22.3274 66.3757 21.5963 65.5001 21.1966C65.0426 20.9888 64.5451 20.8838 64.0426 20.889C63.5288 20.8801 63.0189 20.9804 62.5468 21.1832C62.1241 21.3714 61.7453 21.646 61.435 21.9893C61.1249 22.3354 60.886 22.7391 60.732 23.1775C60.6218 23.5292 60.5501 23.8917 60.5181 24.2588C60.5028 24.4594 60.4894 24.6408 60.4894 24.6408C60.4894 24.6408 60.5028 24.8319 60.52 25.0229C60.5534 25.3908 60.629 25.7536 60.7454 26.1041C61.0819 27.0015 61.7567 27.7312 62.6251 28.1367C63.0858 28.3473 63.5877 28.4523 64.0941 28.4442Z" fill="#6EC3D8"/>
<path d="M79.4185 31.7164C78.8713 31.7235 78.3254 31.6593 77.7948 31.5254C77.3252 31.409 76.8928 31.1757 76.5378 30.8472C76.1697 30.495 75.8896 30.0612 75.7202 29.5807C75.5291 29.0611 75.4508 27.9646 75.4508 27.9646C75.4375 27.764 75.426 27.4354 75.426 27.2349V21.4696C75.4255 21.373 75.3869 21.2805 75.3186 21.2122C75.2503 21.1438 75.1577 21.1052 75.0611 21.1047H74.1557C74.0587 21.1047 73.9657 21.0663 73.897 20.998C73.8282 20.9296 73.7894 20.8368 73.7889 20.7399V18.1457C73.7894 18.0486 73.8282 17.9556 73.8969 17.8869C73.9655 17.8182 74.0585 17.7794 74.1557 17.7789H75.0611C75.1577 17.7784 75.2503 17.7398 75.3186 17.6715C75.3869 17.6032 75.4255 17.5107 75.426 17.414V14.6422C75.4265 14.5456 75.4651 14.4531 75.5334 14.3848C75.6017 14.3164 75.6943 14.2778 75.7909 14.2773H78.9486C79.0452 14.2778 79.1377 14.3164 79.206 14.3848C79.2743 14.4531 79.3129 14.5456 79.3134 14.6422V17.414C79.3139 17.5107 79.3525 17.6032 79.4209 17.6715C79.4892 17.7398 79.5817 17.7784 79.6783 17.7789H82.1617C82.2586 17.7794 82.3514 17.8183 82.4198 17.887C82.4882 17.9557 82.5266 18.0487 82.5266 18.1457V20.7418C82.526 20.8384 82.4874 20.9309 82.4191 20.9992C82.3508 21.0675 82.2583 21.1061 82.1617 21.1066H79.6783C79.5817 21.1071 79.4892 21.1457 79.4209 21.2141C79.3525 21.2824 79.3139 21.3749 79.3134 21.4715V26.6178C79.3201 26.8596 79.3567 27.0995 79.4223 27.3323C79.4223 27.3323 79.7299 28.3161 80.5685 28.3161C81.2505 28.3161 82.1483 27.9455 82.1483 27.9455C82.185 27.9246 82.2267 27.9143 82.2688 27.9158C82.311 27.9173 82.3518 27.9305 82.3869 27.9539C82.422 27.9773 82.4499 28.0099 82.4675 28.0483C82.485 28.0866 82.4916 28.1291 82.4864 28.1709V30.5607C82.4804 30.6691 82.4474 30.7743 82.3903 30.8667C82.3333 30.9592 82.254 31.0358 82.1598 31.0898C81.8277 31.253 81.4834 31.3904 81.1301 31.5005C80.5727 31.6532 79.9964 31.7259 79.4185 31.7164Z" fill="#6EC3D8"/>
<path d="M86.3815 13.1847C86.382 13.0881 86.4206 12.9956 86.4889 12.9272C86.5573 12.8589 86.6498 12.8203 86.7464 12.8198H89.9098C90.0065 12.8203 90.099 12.8589 90.1673 12.9272C90.2356 12.9956 90.2742 13.0881 90.2747 13.1847V19.374C90.2747 19.5746 90.3779 19.6109 90.5059 19.4562C90.5059 19.4562 90.7389 19.1677 91.0025 18.9022C91.2701 18.6347 91.5661 18.397 91.8851 18.1935C92.2203 17.9834 92.5819 17.8189 92.9606 17.7044C93.3948 17.5781 93.8456 17.5175 94.2978 17.5249C95.7802 17.5249 96.9264 17.9763 97.7363 18.8793C98.5329 19.7867 98.8882 22.2509 98.8882 22.2509C98.9197 22.4923 98.937 22.7354 98.9398 22.9788V31.1204C98.9393 31.217 98.9007 31.3096 98.8324 31.3779C98.7641 31.4462 98.6716 31.4848 98.5749 31.4853H95.4153C95.3187 31.4848 95.2262 31.4462 95.1579 31.3779C95.0896 31.3096 95.0509 31.217 95.0504 31.1204V24.2243C95.0475 23.981 95.0322 23.7381 95.0046 23.4965C95.0046 23.4965 94.846 22.2471 94.4315 21.7772C94.017 21.3073 93.442 21.0742 92.6931 21.0742C92.3637 21.0577 92.0346 21.1119 91.7278 21.2331C91.421 21.3544 91.1438 21.5399 90.9147 21.7772C90.481 22.2433 90.3129 23.4965 90.3129 23.4965C90.2831 23.738 90.2665 23.9809 90.2632 24.2243V31.1204C90.2627 31.217 90.2241 31.3096 90.1558 31.3779C90.0875 31.4462 89.995 31.4848 89.8984 31.4853H86.7464C86.6498 31.4848 86.5573 31.4462 86.4889 31.3779C86.4206 31.3096 86.382 31.217 86.3815 31.1204V13.1847Z" fill="#6EC3D8"/>
</g>
<defs>
<clipPath id="clip0_5180_2455">
<rect width="100" height="31.793" fill="white"/>
</clipPath>
</defs>
</svg>
