<svg xmlns="http://www.w3.org/2000/svg" viewBox="0 0 249.204 249.204" height="941.874" width="941.874"><g transform="translate(-46.425813,-26.087846)"><circle r="124.549" cy="150.69" cx="171.028" fill="#fe6218"/><g><path transform="matrix(0.26458333,0,0,0.26458333,80.011192,79.398194)" d="M 331.53711,9.3085938 C 314.35681,9.1540111 294.98964,10.669446 272.4375,14.349609 a 34.01915,34.01915 0 0 0 -6.10352,1.587891 c -63.0952,22.858923 -97.92512,50.552082 -116.79687,75.884766 -9.43589,12.666364 -14.67988,24.658274 -17.44336,33.375004 -1.04561,3.29805 -1.4832,5.346 -1.91992,7.21093 a 34.01915,34.01915 0 0 0 -1.1875,3.58789 c -11.02666,40.9736 -16.67136,69.65071 -19.25977,92.45899 a 34.01915,34.01915 0 0 0 -20.816404,32.30273 l 3.513672,125.89063 a 34.01915,34.01915 0 0 0 32.066402,33.01172 l 4.34766,0.25 c 5.29266,19.32506 10.8755,36.0967 16.70508,50.24218 -13.90885,4.49919 -26.34149,9.0203 -37.22656,13.53907 a 34.01915,34.01915 0 0 0 -4.70118,2.39843 C 71.443174,505.76947 43.626132,526.35606 25.679688,554.48047 14.281756,569.36536 5.3964846,579.82629 -2.4121094,588.18164 A 470.73687,470.73687 0 0 0 274.625,735.04492 l -3.56641,-9.17773 a 34.01915,34.01915 0 0 0 5.58789,9.47461 470.73687,470.73687 0 0 0 67.35352,4.84375 470.73687,470.73687 0 0 0 75.51953,-6.09766 34.01915,34.01915 0 0 0 3.13086,-5.32422 L 420.25,733.96875 A 470.73687,470.73687 0 0 0 736.27148,529.67383 C 705.74144,501.29971 662.9213,477.48438 614.11719,452.23633 a 34.01915,34.01915 0 0 0 -3.08594,-1.41016 c -30.3645,-12.04308 -42.77371,-17.55209 -61.75,-25.46679 3.13531,-5.12263 5.72345,-9.04428 9.77344,-16.04102 a 34.01915,34.01915 0 0 0 3.22656,-7.54492 c 6.6971,-23.02636 18.59491,-32.66512 26.44922,-132.13477 a 34.01915,34.01915 0 0 0 -0.125,-6.66015 c -1.63589,-13.87646 2.02501,-27.24727 -14.8457,-80.49219 a 34.01915,34.01915 0 0 0 -0.9668,-2.64844 c -3.02419,-7.35999 -4.51337,-27.59621 -44.58789,-74.77148 a 34.01915,34.01915 0 0 0 -3.2832,-3.36719 C 504.12291,83.152321 484.08722,58.902019 432.18164,31.652344 a 34.01915,34.01915 0 0 0 -5.00391,-2.140625 C 404.28404,21.839769 375.44244,9.7042725 331.53711,9.3085938 Z" fill="#d54501"/></g><g><path d="m 140.50111,217.66087 65.18635,-34.47175 3.38142,30.15104 -25.36068,55.04207 -23.57604,-0.18786 z" fill="#f1d6c0"/><path d="m 492.74805,438.78711 c -24.02929,103.70234 -60.63442,141.73726 -92.30274,205.54687 -37.62682,43.30568 -40.94869,40.87313 -60.70508,60.35157 -17.51047,-22.56223 -31.0297,-32.15427 -62.83593,-101.17774 -2.95839,-5.67322 -5.91662,-17.04361 -8.875,-44.375 l -53.25196,-72.41992 c -42.57789,9.46681 -70.56119,18.93358 -93.36523,28.40039 -30.716788,18.78943 -55.042039,38.25057 -67.806641,58.92969 -12.7424,16.70314 -23.054001,28.73209 -32.097657,38.32226 A 470.73687,470.73687 0 0 0 344,740.18555 470.73687,470.73687 0 0 0 716.19922,557.65234 C 690.63948,533.34475 648.10298,508.09232 598.53906,482.45117 547.25031,462.10919 509.98088,446.83112 492.74805,438.78711 Z" transform="matrix(0.26458333,0,0,0.26458333,80.011192,79.398194)" fill="#fbf6f0"/><path d="m 152.43003,223.01479 9.5807,9.11106 28.08461,-11.64713 6.2932,-20.4764 z" fill="#7a5b49"/><path d="m 120.02471,163.37022 c -0.81722,7.07594 1.04064,14.15189 1.78464,21.22783 5.62933,22.96657 12.2799,28.23158 18.59784,39.26209 2.72616,2.32921 6.88899,2.5034 10.51998,3.47536 5.372,-0.0999 11.35857,0.66053 15.59213,-1.03322 11.84241,-6.88664 25.535,-14.66137 25.36068,-15.77998 3.13056,-4.58063 6.69942,-8.59772 8.17177,-15.31033 0.46964,-2.04476 0.93929,-3.18668 1.40893,-6.575 4.58409,0.99817 9.78802,-0.68964 15.87391,-6.19927 l 2.53606,-24.4214 -17.00104,-24.98497 -72.13706,-9.11106 -11.45927,21.50962 z" fill="#f1d6c0"/><path d="M 453.06836 260.7168 C 439.40688 260.75561 423.60017 261.25225 410.49609 263.39062 C 351.89293 268.15201 308.06668 331.89192 305.58984 332.35352 C 281.61772 400.04086 272.8093 477.71123 278.16992 506.08203 C 282.54098 484.04027 272.33188 464.98307 291.44727 439.99609 L 290.72266 408.12891 L 293.08008 437.92188 L 299.10742 413.7207 L 301.28711 430.85156 C 304.25921 428.78952 307.96062 426.34596 312.34961 423.48047 L 320.07422 396.94727 L 322.21094 417.0332 C 326.3726 414.30553 330.7995 411.38867 335.67969 408.10156 C 336.00923 408.01243 336.33225 407.93275 336.66016 407.8457 L 347.33008 389.95898 L 348.53711 405.05664 C 352.4535 404.26162 356.25199 403.61818 359.95117 403.09961 L 372.48828 375.2832 L 372.87695 401.75391 C 377.86711 401.41258 382.68113 401.2968 387.37695 401.33008 L 399.04492 383.66992 L 400.4375 401.78516 C 404.60296 402.04607 408.6964 402.39963 412.75781 402.79297 L 420.00977 391.35742 L 426.20703 404.19531 L 438.87891 387.86328 L 442.28711 408.3125 C 443.9547 408.76613 445.57818 409.21955 447.16602 409.66992 L 456.34961 389.25977 L 463.85938 414.79492 C 465.97661 415.50359 467.98597 416.20818 469.93945 416.91016 L 476.61719 399.74219 L 479.0957 420.39062 C 482.53924 421.78316 485.70849 423.16441 488.66602 424.53711 L 497.58203 413.02148 L 497.15625 428.76172 C 499.04274 429.75644 500.85777 430.74759 502.59766 431.73633 L 510.85938 421.4082 L 510.12109 436.17578 C 513.70365 438.37325 517.17378 440.56798 520.71289 442.76367 L 545.10352 431.89062 L 532.78516 451.72461 L 558.62305 584.18359 L 586.66797 589.86328 L 600.05273 513.38672 C 620.74326 537.49597 620.5932 545.35496 642.4043 570.33789 C 643.46526 585.26198 640.92806 588.19227 639.4082 594.51367 L 601.22461 615.42383 L 610.45312 674.35547 L 619.68359 640.27344 C 627.72972 633.66346 626.49787 627.45 654.83008 578.50391 C 663.39007 549.07235 662.24077 570.71984 669.92969 473.34375 C 667.58491 453.45361 673.96729 446.55989 657.83789 395.6543 C 651.27229 379.67597 652.12498 375.6802 613.89453 330.67578 C 590.53365 309.84431 586.55932 297.59157 538.4668 272.34375 C 513.71783 264.05013 512.49857 261.23098 474.29688 260.88672 C 468.69119 260.8362 461.26525 260.69351 453.06836 260.7168 z" transform="matrix(0.26458333,0,0,0.26458333,46.425813,26.087846)" fill="#0c1117"/></g><path d="m 120.02472,159.98879 c -1.41833,-7.50644 -6.06061,-9.27668 2.81785,-42.2678 0.65533,-0.12213 -0.32278,-14.39784 30.7146,-25.642463 19.72407,-3.218652 27.52161,0.610196 36.6321,3.663209 12.72448,6.680154 16.54978,11.771174 22.73068,17.282834 10.11514,11.90742 8.59498,13.14916 10.33213,17.37676 4.26757,13.46877 2.94889,14.36845 3.56928,19.63105 -2.03436,25.76409 -4.40409,25.36964 -6.66892,33.15674 -7.49623,12.95032 -7.63969,10.55574 -9.76856,12.30463 1.49544,-3.32689 1.1314,-2.25864 5.07214,-11.36534 0.34775,-2.26399 1.25821,-2.65231 0.93928,-7.13856 -8.92281,-10.22039 -3.93468,-9.59496 -26.95746,-30.80854 -8.86019,-4.33347 -10.40559,-8.36838 -30.24496,-13.14998 -7.11237,-0.76484 -14.15692,-1.616 -23.95176,1.03321 -6.62802,4.46438 -10.90292,6.93096 -11.27141,7.88999 -5.64473,6.88363 -2.75666,12.04191 -3.94499,18.03426 z" fill="#fe6218"/><g><path d="m 112.5454,148.14021 0.92985,33.30787 20.94572,1.19551 8.02676,-14.932 7.61998,16.52602 30.377,1.59402 0.79701,-41.27796 z" fill="#fa5101"/><path d="m 133.73503,155.68875 c 1.17196,-0.71468 1.66558,-0.75405 1.66558,-0.75405 1.57775,-0.59961 2.49533,-0.65109 2.61646,-1.17499 0.0727,-0.33009 -0.2029,-0.67834 -0.39671,-0.8449 -0.72982,-0.61172 -2.01988,-0.13324 -2.73457,0.1393 -1.41422,0.5451 -2.11376,1.23253 -3.12825,1.98961 -2.10165,1.57472 -3.48862,2.6104 -5.21173,2.66189 -1.91995,0.0515 -2.7164,-1.15985 -4.67874,-0.62384 -0.91456,0.25135 -1.2931,0.65412 -1.47782,0.95392 -0.33009,0.54207 -0.34826,1.24767 -0.0939,2.03503 0.43002,1.34154 2.42568,1.47176 3.18882,1.5505 3.20093,0.33917 5.76288,-1.59592 5.8719,-1.68072 1.79276,-1.39605 2.04108,-2.82542 4.37894,-4.25175" fill="#9d3b0e"/><path d="m 122.76956,168.85161 c -0.64503,-1.82608 2.00172,-3.79448 4.57276,-4.06098 2.04714,-0.21501 4.86045,0.56327 5.72352,1.72009 0.15444,0.20592 0.41185,0.64503 0.95391,0.72679 0.76314,0.11508 1.45662,-0.56326 1.5505,-0.51178 0.20593,0.11205 -1.69888,3.94286 -6.12022,4.41225 -2.44083,0.26044 -6.03544,-0.45727 -6.68047,-2.28637" fill="#9d3b0e"/><path d="m 153.85186,155.33959 c -1.48851,-0.852 -2.11547,-0.89893 -2.11547,-0.89893 -2.00393,-0.71482 -3.16937,-0.7762 -3.32322,-1.40076 -0.0923,-0.39352 0.25386,-0.80868 0.50387,-1.00725 0.92311,-0.72925 2.56549,-0.15884 3.47322,0.16607 1.79239,0.64984 2.68474,1.46936 3.96942,2.37191 2.6732,1.87729 4.4348,3.11197 6.62337,3.17335 2.43472,0.0614 3.45015,-1.3827 5.93872,-0.7437 1.16543,0.29964 1.64623,0.7798 1.88086,1.13721 0.41925,0.64622 0.44233,1.4874 0.11926,2.42605 -0.54618,1.59931 -3.08091,1.75455 -4.05019,1.84842 -4.06556,0.40434 -7.31955,-1.90257 -7.45802,-2.00366 -2.27702,-1.6643 -2.59243,-3.36831 -5.56179,-5.06871" fill="#9d3b0e"/><path d="m 167.111,170.18675 c 0.7881,-2.53244 -2.44569,-5.26226 -5.58697,-5.63185 -2.50118,-0.29818 -5.94217,0.78116 -6.99297,2.38546 -0.18869,0.28557 -0.50319,0.89454 -1.16549,1.00793 -0.93239,0.15959 -1.77969,-0.78114 -1.89808,-0.70975 -0.2479,0.15539 2.07938,5.46804 7.48135,6.119 2.98218,0.36118 7.37406,-0.63415 8.16216,-3.17079" fill="#9d3b0e"/></g></g></svg>
